<svg width="58" height="57" viewBox="0 0 58 57" fill="none" xmlns="http://www.w3.org/2000/svg">
<circle cx="29.3039" cy="28.5642" r="28.4333" fill="#3E4959"/>
<path d="M36.8541 22.632C38.2955 17.2986 32.9648 11.4482 27.1174 11.4482C21.7323 11.4482 16.5377 15.802 14.5522 20.047L18.2783 26.7137C21.2156 14.8224 26.5463 15.285 27.3622 15.3939C29.4836 15.6388 31.7138 18.6864 31.333 21.8701C31.2786 22.2783 30.7619 25.7613 26.8454 27.0947L26.4375 27.2307L28.0421 21.1082L22.3851 20.8633C22.0043 22.0606 19.6653 29.1355 17.7887 34.6321C14.933 42.9588 20.6444 45.6799 24.2889 45.6799C31.9857 45.6799 36.6637 38.5506 35.3854 33.4893C34.4335 29.7341 30.2451 28.9722 30.2451 28.9722C30.2451 28.9722 35.5758 27.4484 36.8541 22.632ZM27.8517 39.7206C27.3078 40.156 25.4584 41.3805 24.0985 41.3805C23.5546 41.3805 23.1466 41.19 22.8746 40.8091C22.3035 39.9927 22.4395 38.3601 23.337 35.8294C23.3914 35.6934 23.5002 35.3668 23.609 34.9859C24.0169 33.7886 24.6697 31.8022 25.0232 30.9042L25.1048 30.7137L25.2952 30.7682C26.4919 31.0403 29.9459 32.5369 30.0819 35.6662C30.1635 37.0811 29.3476 38.5506 27.8517 39.7206Z" fill="#FBF5E3"/>
<path d="M40.5467 25.0947C38.6157 25.0947 37.0654 26.673 37.0926 28.5778C37.0926 30.3193 38.4253 31.7887 40.1659 32.0064C40.3019 32.0336 40.4379 32.0336 40.5739 32.0336H40.6011C41.5258 32.0336 42.3961 31.6526 43.0489 30.9995C43.7016 30.3465 44.0552 29.4757 44.0552 28.5505C44.0008 26.6458 42.4505 25.0947 40.5467 25.0947ZM40.5467 25.9655C40.6555 25.9655 40.7371 25.9655 40.8459 25.9927C42.1513 26.156 43.1304 27.2444 43.1304 28.5505C43.1304 29.2308 42.8585 29.8839 42.3689 30.4009C41.8794 30.8907 41.2266 31.1628 40.5467 31.1628H40.5195C39.1052 31.1628 37.9358 30.0199 37.9358 28.5778C37.9358 27.1356 39.1052 25.9655 40.5467 25.9655Z" fill="#FBF5E3"/>
<path d="M39.105 27.9245H38.561L38.7242 27.4619H40.4105L40.2473 27.9245H39.7305L39.1594 29.6388H38.561L39.105 27.9245Z" fill="#FBF5E3"/>
<path d="M40.6554 27.4619H41.4441L41.3353 28.115L41.2265 28.7408L41.5257 28.115L41.8521 27.4619H42.6408L41.9336 29.6388H41.4169L41.7977 28.5504L41.9608 28.0606L41.7161 28.5504L41.1721 29.6388H40.7098L40.8729 28.5504L40.9545 28.0606L40.7914 28.5504L40.4378 29.6388H39.9482L40.6554 27.4619Z" fill="#FBF5E3"/>
</svg>
