<svg width="57" height="58" viewBox="0 0 57 58" fill="none" xmlns="http://www.w3.org/2000/svg">
<circle cx="28.4455" cy="29.2492" r="28.4333" fill="#FBF5E3"/>
<path d="M35.9966 23.3171C37.4381 17.9837 32.1074 12.1333 26.26 12.1333C20.8749 12.1333 15.6802 16.4871 13.6948 20.732L17.4209 27.3988C20.3582 15.5075 25.6888 15.9701 26.5048 16.0789C28.6262 16.3238 30.8563 19.3715 30.4756 22.5552C30.4212 22.9633 29.9044 26.4464 25.988 27.7797L25.5801 27.9158L27.1847 21.7933L21.5277 21.5484C21.1469 22.7457 18.8079 29.8205 16.9313 35.3172C14.0756 43.6438 19.787 46.3649 23.4315 46.3649C31.1283 46.3649 35.8063 39.2356 34.528 34.1743C33.5761 30.4192 29.3877 29.6573 29.3877 29.6573C29.3877 29.6573 34.7184 28.1335 35.9966 23.3171ZM26.9943 40.4057C26.4504 40.8411 24.601 42.0656 23.2411 42.0656C22.6971 42.0656 22.2892 41.8751 22.0172 41.4941C21.4461 40.6778 21.582 39.0451 22.4796 36.5145C22.534 36.3784 22.6427 36.0519 22.7515 35.6709C23.1595 34.4737 23.8122 32.4872 24.1658 31.5893L24.2474 31.3988L24.4378 31.4532C25.6345 31.7253 29.0885 33.2219 29.2245 36.3512C29.3061 37.7662 28.4902 39.2356 26.9943 40.4057Z" fill="#3F4A5A"/>
<path d="M39.6893 25.7798C37.7583 25.7798 36.208 27.358 36.2352 29.2628C36.2352 31.0043 37.5679 32.4737 39.3085 32.6914C39.4445 32.7186 39.5805 32.7186 39.7165 32.7186H39.7437C40.6684 32.7186 41.5387 32.3377 42.1914 31.6846C42.8442 31.0315 43.1977 30.1608 43.1977 29.2356C43.1433 27.3308 41.5931 25.7798 39.6893 25.7798ZM39.6893 26.6505C39.7981 26.6505 39.8797 26.6505 39.9884 26.6778C41.2939 26.841 42.273 27.9295 42.273 29.2356C42.273 29.9159 42.001 30.5689 41.5115 31.086C41.0219 31.5758 40.3692 31.8479 39.6893 31.8479H39.6621C38.2478 31.8479 37.0783 30.705 37.0783 29.2628C37.0783 27.8206 38.2478 26.6505 39.6893 26.6505Z" fill="#3F4A5A"/>
<path d="M38.2476 28.6096H37.7036L37.8668 28.147H39.553L39.3899 28.6096H38.8731L38.302 30.3239H37.7036L38.2476 28.6096Z" fill="#3F4A5A"/>
<path d="M39.798 28.147H40.5867L40.4779 28.8L40.3691 29.4259L40.6683 28.8L40.9946 28.147H41.7834L41.0762 30.3239H40.5595L40.9402 29.2354L41.1034 28.7456L40.8586 29.2354L40.3147 30.3239H39.8523L40.0155 29.2354L40.0971 28.7456L39.9339 29.2354L39.5804 30.3239H39.0908L39.798 28.147Z" fill="#3F4A5A"/>
</svg>
