<svg width="58" height="58" viewBox="0 0 58 58" fill="none" xmlns="http://www.w3.org/2000/svg">
<circle cx="29.3259" cy="29.2492" r="28.4333" fill="#3E4959"/>
<path d="M36.877 23.3171C38.3185 17.9837 32.9878 12.1333 27.1404 12.1333C21.7553 12.1333 16.5606 16.4871 14.5752 20.732L18.3012 27.3988C21.2385 15.5075 26.5692 15.9701 27.3851 16.0789C29.5065 16.3238 31.7367 19.3715 31.3559 22.5552C31.3016 22.9633 30.7848 26.4464 26.8684 27.7797L26.4604 27.9158L28.0651 21.7933L22.408 21.5484C22.0273 22.7457 19.6883 29.8205 17.8117 35.3172C14.956 43.6438 20.6674 46.3649 24.3118 46.3649C32.0087 46.3649 36.6866 39.2356 35.4083 34.1743C34.4564 30.4192 30.2681 29.6573 30.2681 29.6573C30.2681 29.6573 35.5987 28.1335 36.877 23.3171ZM27.8747 40.4057C27.3307 40.8411 25.4813 42.0656 24.1215 42.0656C23.5775 42.0656 23.1696 41.8751 22.8976 41.4941C22.3264 40.6778 22.4624 39.0451 23.3599 36.5145C23.4143 36.3784 23.5231 36.0519 23.6319 35.6709C24.0399 34.4737 24.6926 32.4872 25.0462 31.5893L25.1278 31.3988L25.3181 31.4532C26.5148 31.7253 29.9689 33.2219 30.1049 36.3512C30.1865 37.7662 29.3705 39.2356 27.8747 40.4057Z" fill="white"/>
<path d="M40.5697 25.7798C38.6386 25.7798 37.0884 27.358 37.1156 29.2628C37.1156 31.0043 38.4483 32.4737 40.1889 32.6914C40.3249 32.7186 40.4609 32.7186 40.5968 32.7186H40.624C41.5487 32.7186 42.4191 32.3377 43.0718 31.6846C43.7245 31.0315 44.0781 30.1608 44.0781 29.2356C44.0237 27.3308 42.4735 25.7798 40.5697 25.7798ZM40.5697 26.6505C40.6784 26.6505 40.76 26.6505 40.8688 26.6778C42.1743 26.841 43.1534 27.9295 43.1534 29.2356C43.1534 29.9159 42.8814 30.5689 42.3919 31.086C41.9023 31.5758 41.2496 31.8479 40.5697 31.8479H40.5425C39.1282 31.8479 37.9587 30.705 37.9587 29.2628C37.9587 27.8206 39.1282 26.6505 40.5697 26.6505Z" fill="white"/>
<path d="M39.1279 28.6096H38.584L38.7472 28.147H40.4334L40.2702 28.6096H39.7535L39.1823 30.3239H38.584L39.1279 28.6096Z" fill="white"/>
<path d="M40.6783 28.147H41.467L41.3583 28.8L41.2495 29.4259L41.5486 28.8L41.875 28.147H42.6637L41.9566 30.3239H41.4398L41.8206 29.2354L41.9838 28.7456L41.739 29.2354L41.1951 30.3239H40.7327L40.8959 29.2354L40.9775 28.7456L40.8143 29.2354L40.4607 30.3239H39.9712L40.6783 28.147Z" fill="white"/>
</svg>
