<svg width="58" height="58" viewBox="0 0 58 58" fill="none" xmlns="http://www.w3.org/2000/svg">
<circle cx="29.3259" cy="29.2492" r="28.4333" fill="#738298"/>
<path d="M36.876 23.3171C38.3175 17.9837 32.9868 12.1333 27.1394 12.1333C21.7543 12.1333 16.5596 16.4871 14.5742 20.732L18.3003 27.3988C21.2376 15.5075 26.5682 15.9701 27.3842 16.0789C29.5056 16.3238 31.7357 19.3715 31.355 22.5552C31.3006 22.9633 30.7838 26.4464 26.8674 27.7797L26.4595 27.9158L28.0641 21.7933L22.4071 21.5484C22.0263 22.7457 19.6873 29.8205 17.8107 35.3172C14.955 43.6438 20.6664 46.3649 24.3109 46.3649C32.0077 46.3649 36.6856 39.2356 35.4074 34.1743C34.4555 30.4192 30.2671 29.6573 30.2671 29.6573C30.2671 29.6573 35.5978 28.1335 36.876 23.3171ZM27.8737 40.4057C27.3298 40.8411 25.4803 42.0656 24.1205 42.0656C23.5765 42.0656 23.1686 41.8751 22.8966 41.4941C22.3255 40.6778 22.4614 39.0451 23.359 36.5145C23.4134 36.3784 23.5221 36.0519 23.6309 35.6709C24.0389 34.4737 24.6916 32.4872 25.0452 31.5893L25.1268 31.3988L25.3172 31.4532C26.5138 31.7253 29.9679 33.2219 30.1039 36.3512C30.1855 37.7662 29.3696 39.2356 27.8737 40.4057Z" fill="white"/>
<path d="M40.5687 25.7798C38.6377 25.7798 37.0874 27.358 37.1146 29.2628C37.1146 31.0043 38.4473 32.4737 40.1879 32.6914C40.3239 32.7186 40.4599 32.7186 40.5959 32.7186H40.6231C41.5478 32.7186 42.4181 32.3377 43.0708 31.6846C43.7236 31.0315 44.0771 30.1608 44.0771 29.2356C44.0227 27.3308 42.4725 25.7798 40.5687 25.7798ZM40.5687 26.6505C40.6775 26.6505 40.759 26.6505 40.8678 26.6778C42.1733 26.841 43.1524 27.9295 43.1524 29.2356C43.1524 29.9159 42.8804 30.5689 42.3909 31.086C41.9013 31.5758 41.2486 31.8479 40.5687 31.8479H40.5415C39.1272 31.8479 37.9577 30.705 37.9577 29.2628C37.9577 27.8206 39.1272 26.6505 40.5687 26.6505Z" fill="white"/>
<path d="M39.127 28.6096H38.583L38.7462 28.147H40.4324L40.2692 28.6096H39.7525L39.1814 30.3239H38.583L39.127 28.6096Z" fill="white"/>
<path d="M40.6778 28.147H41.4666L41.3578 28.8L41.249 29.4259L41.5481 28.8L41.8745 28.147H42.6632L41.9561 30.3239H41.4394L41.8201 29.2354L41.9833 28.7456L41.7385 29.2354L41.1946 30.3239H40.7322L40.8954 29.2354L40.977 28.7456L40.8138 29.2354L40.4603 30.3239H39.9707L40.6778 28.147Z" fill="white"/>
</svg>
