<svg width="518" height="607" viewBox="0 0 518 607" fill="none" xmlns="http://www.w3.org/2000/svg">
<g opacity="0.2">
<mask id="mask0_175_33" style="mask-type:alpha" maskUnits="userSpaceOnUse" x="0" y="0" width="518" height="607">
<rect x="0.313477" y="0.466309" width="517.398" height="606.196" fill="#4D2E2E"/>
</mask>
<g mask="url(#mask0_175_33)">
<path d="M505.094 250.712C537.794 129.721 416.865 -2.99902 284.212 -2.99902C162.048 -2.99902 44.2037 95.7692 -0.836426 192.068L83.6909 343.307C150.326 73.5464 271.255 84.0405 289.765 86.5097C337.89 92.0654 388.483 161.203 379.845 233.427C378.611 242.687 366.888 321.702 278.042 351.949L268.787 355.036L305.19 216.143L176.856 210.587C168.218 237.749 115.157 398.247 72.5852 522.942C7.80141 711.836 137.369 773.566 220.045 773.566C394.653 773.566 500.775 611.833 471.776 497.015C450.182 411.828 355.166 394.543 355.166 394.543C355.166 394.543 476.095 359.974 505.094 250.712ZM300.871 638.377C288.531 648.254 246.576 676.033 215.726 676.033C203.387 676.033 194.132 671.712 187.962 663.069C175.005 644.55 178.09 607.512 198.451 550.103C199.685 547.017 202.153 539.609 204.621 530.967C213.875 503.806 228.683 458.743 236.704 438.372L238.555 434.051L242.874 435.285C270.021 441.458 348.379 475.41 351.464 546.399C353.315 578.499 334.805 611.833 300.871 638.377Z" fill="#FBF5E3"/>
</g>
</g>
</svg>
