<svg width="518" height="607" viewBox="0 0 518 607" fill="none" xmlns="http://www.w3.org/2000/svg">
<g opacity="0.2">
<mask id="mask0_223_10" style="mask-type:alpha" maskUnits="userSpaceOnUse" x="0" y="0" width="518" height="607">
<rect x="0.193848" y="0.466309" width="517.398" height="606.196" fill="#4D2E2E"/>
</mask>
<g mask="url(#mask0_223_10)">
<path d="M504.974 250.712C537.675 129.721 416.745 -2.99902 284.092 -2.99902C161.929 -2.99902 44.0841 95.7692 -0.956055 192.068L83.5713 343.307C150.206 73.5464 271.136 84.0405 289.645 86.5097C337.77 92.0654 388.363 161.203 379.726 233.427C378.492 242.687 366.769 321.702 277.923 351.949L268.668 355.036L305.07 216.143L176.736 210.587C168.099 237.749 115.038 398.247 72.4655 522.942C7.68178 711.836 137.249 773.566 219.926 773.566C394.533 773.566 500.655 611.833 471.657 497.015C450.062 411.828 355.046 394.543 355.046 394.543C355.046 394.543 475.976 359.974 504.974 250.712ZM300.751 638.377C288.411 648.254 246.456 676.033 215.607 676.033C203.267 676.033 194.012 671.712 187.842 663.069C174.886 644.55 177.97 607.512 198.331 550.103C199.565 547.017 202.033 539.609 204.501 530.967C213.756 503.806 228.564 458.743 236.584 438.372L238.435 434.051L242.754 435.285C269.902 441.458 348.259 475.41 351.344 546.399C353.195 578.499 334.685 611.833 300.751 638.377Z" fill="#738298"/>
</g>
</g>
</svg>
