<svg width="518" height="607" viewBox="0 0 518 607" fill="none" xmlns="http://www.w3.org/2000/svg">
<g opacity="0.2">
<mask id="mask0_223_20" style="mask-type:alpha" maskUnits="userSpaceOnUse" x="0" y="0" width="518" height="607">
<rect x="0.193359" y="0.466309" width="517.398" height="606.196" fill="#4D2E2E"/>
</mask>
<g mask="url(#mask0_223_20)">
<path d="M504.973 250.712C537.674 129.721 416.744 -2.99902 284.091 -2.99902C161.928 -2.99902 44.0831 95.7692 -0.957031 192.068L83.5703 343.307C150.205 73.5464 271.135 84.0405 289.644 86.5097C337.769 92.0654 388.362 161.203 379.725 233.427C378.491 242.687 366.768 321.702 277.922 351.949L268.667 355.036L305.069 216.143L176.736 210.587C168.098 237.749 115.037 398.247 72.4645 522.942C7.6808 711.836 137.248 773.566 219.925 773.566C394.532 773.566 500.654 611.833 471.656 497.015C450.061 411.828 355.045 394.543 355.045 394.543C355.045 394.543 475.975 359.974 504.973 250.712ZM300.75 638.377C288.41 648.254 246.455 676.033 215.606 676.033C203.266 676.033 194.011 671.712 187.841 663.069C174.885 644.55 177.969 607.512 198.33 550.103C199.564 547.017 202.032 539.609 204.5 530.967C213.755 503.806 228.563 458.743 236.583 438.372L238.434 434.051L242.753 435.285C269.901 441.458 348.258 475.41 351.343 546.399C353.194 578.499 334.685 611.833 300.75 638.377Z" fill="#738298"/>
</g>
</g>
</svg>
