<svg width="31" height="31" viewBox="0 0 31 31" fill="none" xmlns="http://www.w3.org/2000/svg">
<path d="M1.73182 14.7911C1.72656 16.8108 2.19844 18.8032 3.10903 20.606C4.1887 22.7663 5.84851 24.5833 7.90254 25.8536C9.95656 27.1238 12.3237 27.7971 14.7387 27.7981C16.7584 27.8033 18.7508 27.3314 20.5536 26.4209L29.2759 29.3283L26.3685 20.606C27.279 18.8032 27.7509 16.8108 27.7457 14.7911C27.7447 12.3761 27.0714 10.009 25.8012 7.95493C24.5309 5.90091 22.7139 4.2411 20.5536 3.16143C18.7508 2.25084 16.7584 1.77896 14.7387 1.78422H13.9736C10.7841 1.96019 7.77156 3.30643 5.5128 5.56519C3.25403 7.82396 1.90779 10.8365 1.73182 14.026V14.7911Z" stroke="black" stroke-width="3.10162" stroke-linecap="round" stroke-linejoin="round"/>
</svg>
