<svg width="29" height="30" viewBox="0 0 29 30" fill="none" xmlns="http://www.w3.org/2000/svg">
<path d="M17.1377 29.3282C16.9383 29.3281 16.7429 29.2719 16.5738 29.1661C16.4048 29.0602 16.2689 28.909 16.1817 28.7296L11.1815 18.4505L0.902411 13.4511C0.717242 13.3608 0.562259 13.2187 0.45628 13.0421C0.350301 12.8655 0.297885 12.6618 0.305395 12.456C0.312905 12.2501 0.380019 12.0509 0.498588 11.8824C0.617158 11.714 0.782081 11.5836 0.973336 11.507L27.3508 0.897451C27.5444 0.819437 27.7566 0.800069 27.9611 0.841758C28.1656 0.883447 28.3533 0.984352 28.5008 1.13191C28.6484 1.27947 28.7493 1.46717 28.791 1.67165C28.8327 1.87612 28.8133 2.08834 28.7353 2.2819L18.125 28.6615C18.0481 28.8526 17.9173 29.0173 17.7486 29.1355C17.5799 29.2537 17.3805 29.3204 17.1746 29.3275L17.1377 29.3282ZM3.98975 12.5901L12.4425 16.7037C12.6568 16.8079 12.8299 16.9809 12.934 17.1952L17.0476 25.6479L25.8274 3.79968L3.98975 12.5901Z" fill="black"/>
<path d="M11.9772 18.7187C11.7668 18.7186 11.5611 18.6562 11.3862 18.5392C11.2112 18.4223 11.0749 18.2561 10.9944 18.0617C10.914 17.8672 10.893 17.6533 10.9341 17.4469C10.9752 17.2406 11.0766 17.051 11.2254 16.9023L26.9955 1.13225C27.0943 1.03347 27.2116 0.955132 27.3407 0.901694C27.4698 0.848255 27.6081 0.820768 27.7479 0.820801C27.8876 0.820834 28.0259 0.848386 28.155 0.901886C28.2841 0.955385 28.4013 1.03378 28.5001 1.1326C28.5989 1.23142 28.6772 1.34873 28.7307 1.47783C28.7841 1.60693 28.8116 1.74529 28.8116 1.88501C28.8115 2.02473 28.784 2.16307 28.7305 2.29215C28.677 2.42122 28.5986 2.53849 28.4998 2.63727L12.7297 18.4101C12.5296 18.6086 12.259 18.7196 11.9772 18.7187Z" fill="black"/>
</svg>
