<svg width="45" height="43" viewBox="0 0 45 43" fill="none" xmlns="http://www.w3.org/2000/svg">
<path fill-rule="evenodd" clip-rule="evenodd" d="M1.37902 14.9131H43.9066V17.0811C43.917 18.2044 43.7035 19.3185 43.2785 20.3584C42.8532 21.3991 42.2246 22.3446 41.4295 23.1395C40.6344 23.9344 39.6888 24.5628 38.648 24.9879C37.6074 25.4128 36.4926 25.6261 35.3687 25.6152C34.0469 25.6063 32.7449 25.2943 31.5626 24.7032C30.5966 24.2202 29.7317 23.5614 29.011 22.7627C28.2932 23.5674 27.4278 24.2304 26.4595 24.7146C25.2745 25.3071 23.9679 25.6155 22.643 25.6155C21.3182 25.6155 20.0116 25.3071 18.8266 24.7146C17.8583 24.2304 16.9929 23.5674 16.2751 22.7627C15.5544 23.5614 14.6895 24.2202 13.7235 24.7032C12.5412 25.2943 11.2392 25.6063 9.91743 25.6152C8.79347 25.6262 7.6786 25.4129 6.638 24.988C5.59711 24.5629 4.65144 23.9346 3.8563 23.1397C3.06116 22.3448 2.43253 21.3993 2.00717 20.3585C1.58217 19.3186 1.36863 18.2044 1.37902 17.0811V14.9131ZM2.5336 16.0677V17.0894C2.5243 18.0601 2.70866 19.023 3.07594 19.9217C3.44322 20.8204 3.98602 21.6368 4.67259 22.3231C5.35917 23.0095 6.17572 23.5521 7.0745 23.9191C7.97327 24.2861 8.93621 24.4702 9.90698 24.4607L9.90884 24.4606C11.0542 24.453 12.1826 24.1827 13.2071 23.6705C14.2317 23.1583 15.125 22.4178 15.8184 21.5061L16.2811 20.8977L16.7397 21.5092C17.427 22.4257 18.3183 23.1695 19.343 23.6819C20.3676 24.1942 21.4975 24.4609 22.643 24.4609C23.7886 24.4609 24.9185 24.1942 25.9431 23.6819C26.9678 23.1695 27.8591 22.4257 28.5464 21.5092L29.005 20.8977L29.4677 21.5061C30.1611 22.4178 31.0544 23.1583 32.079 23.6705C33.1035 24.1827 34.2319 24.453 35.3773 24.4606L35.3791 24.4607C36.3498 24.4702 37.3127 24.286 38.2114 23.919C39.1102 23.5519 39.9267 23.0094 40.6132 22.323C41.2997 21.6366 41.8425 20.8202 42.2098 19.9216C42.577 19.023 42.7614 18.0601 42.7521 17.0894L42.752 17.0838V16.0677H2.5336Z" fill="white" stroke="white"/>
<path fill-rule="evenodd" clip-rule="evenodd" d="M8.34167 0.591197H36.9434C37.3757 0.562641 37.8056 0.677471 38.1663 0.918261C38.5266 1.15872 38.7973 1.5111 38.9369 1.92059L43.5629 12.8845H1.55066L6.34952 1.91667C6.4895 1.50885 6.75962 1.15796 7.11871 0.918261C7.47943 0.67747 7.90936 0.562641 8.34167 0.591197ZM8.27574 1.744C8.0935 1.72968 7.91175 1.77707 7.75972 1.87855C7.60768 1.98004 7.4942 2.12972 7.43754 2.30351L7.42883 2.33022L3.3161 11.7299H41.8226L37.855 2.3266L37.8475 2.30351C37.7908 2.12972 37.6774 1.98004 37.5253 1.87855C37.3733 1.77707 37.1916 1.72968 37.0093 1.744L36.9867 1.74578H8.29832L8.27574 1.744Z" fill="white" stroke="white"/>
<path fill-rule="evenodd" clip-rule="evenodd" d="M16.8544 24.9883V41.5297H5.15686C4.86889 41.545 4.5808 41.5003 4.31091 41.3983C4.03493 41.294 3.7843 41.1321 3.57568 40.9235C3.36706 40.7149 3.20521 40.4642 3.10089 40.1883C2.99888 39.9184 2.95416 39.6303 2.9695 39.3423V25.0199L3.88562 25.684C5.63853 26.9548 7.74761 27.6403 9.91268 27.6429L9.91836 27.6429L9.92405 27.643C12.0882 27.6883 14.2041 27.0006 15.9281 25.6917L16.8544 24.9883ZM4.12408 27.2183V39.377L4.12295 39.395C4.11474 39.526 4.13449 39.6573 4.18089 39.78C4.2273 39.9028 4.29929 40.0143 4.39209 40.1071C4.4849 40.1999 4.59638 40.2719 4.71915 40.3183C4.84191 40.3647 4.97314 40.3844 5.10413 40.3762L5.12217 40.3751H15.6999V27.2413C13.9618 28.2954 11.9531 28.8392 9.9056 28.7975C7.86591 28.794 5.8711 28.2456 4.12408 27.2183ZM12.1942 31.4887C12.0033 31.4539 11.8062 31.4836 11.6339 31.5731L11.5088 31.638H11.4557C11.4419 31.6495 11.4251 31.6644 11.4046 31.6835C11.3728 31.7134 11.3396 31.7466 11.2985 31.7876L11.2875 31.7986L11.2759 31.809C11.1823 31.8931 11.1081 31.9965 11.0584 32.1122C11.0088 32.2278 10.9849 32.3529 10.9884 32.4787L10.9895 32.5173L10.9854 32.5558C10.9759 32.6448 10.9983 32.7342 11.0485 32.8083L11.148 32.955V33.0444C11.1594 33.0582 11.1743 33.075 11.1935 33.0954C11.2234 33.1273 11.2565 33.1605 11.2976 33.2016L11.3083 33.2123L11.3184 33.2236C11.4025 33.317 11.5058 33.391 11.6213 33.4405C11.7335 33.4886 11.8545 33.5125 11.9764 33.5106C11.981 33.5095 11.9876 33.5079 11.9963 33.5055C12.0327 33.4956 12.0765 33.4812 12.1399 33.4601L12.1465 33.4578C12.2018 33.4394 12.2744 33.4152 12.3446 33.396C12.3923 33.383 12.4643 33.3649 12.5463 33.356C12.5613 33.3439 12.5802 33.3273 12.6041 33.305C12.6362 33.2749 12.6694 33.2418 12.7108 33.2006L12.7117 33.1996C12.7178 33.1937 12.7237 33.1879 12.7615 33.1124C12.763 33.1093 12.7646 33.1061 12.7663 33.1028C12.8022 33.0308 12.8641 32.9067 12.9772 32.7786C13.0147 32.7108 13.0306 32.6329 13.0224 32.5553L13.0191 32.525V32.5194C13.0181 32.515 13.0166 32.509 13.0145 32.5015C13.0046 32.4651 12.9902 32.4213 12.9691 32.3579L12.9669 32.3513C12.9485 32.2961 12.9242 32.2234 12.9051 32.1532C12.892 32.1055 12.8739 32.0334 12.865 31.9512C12.8529 31.9363 12.8365 31.9175 12.8143 31.8938C12.7844 31.8619 12.7513 31.8287 12.7102 31.7876L12.6992 31.7767L12.6888 31.7651C12.5592 31.6207 12.3852 31.5235 12.1942 31.4887ZM11.2004 30.5006C11.5755 30.3308 11.9942 30.2787 12.401 30.3528C12.8383 30.4324 13.2371 30.6532 13.5366 30.9812C13.6087 31.0533 13.7143 31.1588 13.7992 31.2719C13.8807 31.3805 14.0055 31.575 14.0139 31.8297C14.015 31.8342 14.0166 31.8406 14.0189 31.8491C14.0288 31.8855 14.0432 31.9293 14.0644 31.9928L14.0664 31.9988C14.0849 32.0542 14.1092 32.1272 14.1285 32.198C14.1446 32.2569 14.1682 32.3524 14.1729 32.4581C14.2045 32.8102 14.1136 33.1627 13.9149 33.4557L13.8841 33.5012L13.8453 33.54L13.8444 33.5409C13.8379 33.5473 13.832 33.5531 13.794 33.6291C13.7925 33.6321 13.7909 33.6352 13.7893 33.6385C13.7482 33.7209 13.673 33.8715 13.526 34.0182C13.5221 34.022 13.5181 34.026 13.514 34.0301C13.4424 34.1016 13.3381 34.2057 13.2262 34.2898C13.1179 34.3712 12.9233 34.4964 12.6682 34.5049C12.6636 34.506 12.6572 34.5075 12.6487 34.5099C12.6123 34.5198 12.5685 34.5342 12.505 34.5554L12.4991 34.5574C12.4436 34.5759 12.3706 34.6002 12.2998 34.6195C12.236 34.6369 12.1294 34.6632 12.0133 34.6646C11.7226 34.6719 11.4337 34.6163 11.1664 34.5017C10.9023 34.3885 10.6653 34.2202 10.4714 34.0083L10.4706 34.0075C10.3985 33.9354 10.2934 33.8305 10.2085 33.7174C10.1469 33.6352 10.0605 33.5039 10.0184 33.3345C9.87431 33.0725 9.80963 32.7733 9.83356 32.4737C9.83087 32.1931 9.88665 31.9148 9.99749 31.6566C10.111 31.3922 10.2797 31.1552 10.492 30.9612C10.5641 30.8891 10.6696 30.7835 10.7827 30.6986C10.8704 30.6328 11.0141 30.5388 11.2004 30.5006Z" fill="white" stroke="white"/>
<path fill-rule="evenodd" clip-rule="evenodd" d="M42.3183 25.0205V39.3429C42.3337 39.6309 42.2889 39.919 42.1869 40.1889C42.0826 40.4649 41.9208 40.7155 41.7121 40.9241C41.5035 41.1327 41.2529 41.2946 40.9769 41.3989C40.707 41.5009 40.4189 41.5456 40.131 41.5303H18.8835V26.958L19.6346 27.195C20.6056 27.5014 21.6189 27.6528 22.637 27.6436C24.8021 27.6172 26.9079 26.9327 28.6746 25.681L29.0202 25.4362L29.3575 25.6923C31.0821 27.0017 33.1988 27.6894 35.3636 27.6437L35.3694 27.6435L35.3752 27.6435C37.5402 27.6409 39.6493 26.9554 41.4022 25.6847L42.3183 25.0205ZM28.9974 26.8583C27.1127 28.0961 24.9106 28.7708 22.6502 28.7981L22.6485 28.7981C21.7687 28.8062 20.8922 28.7071 20.0381 28.5037V40.3757H40.1656L40.1837 40.3768C40.3147 40.3851 40.4459 40.3653 40.5687 40.3189C40.6914 40.2725 40.8029 40.2005 40.8957 40.1077C40.9885 40.0149 41.0605 39.9034 41.1069 39.7806C41.1533 39.6579 41.1731 39.5267 41.1649 39.3957L41.1637 39.3776V27.2189C39.4167 28.2462 37.422 28.7946 35.3823 28.7981C33.0986 28.8452 30.8631 28.1637 28.9974 26.8583Z" fill="white" stroke="white"/>
</svg>
