<svg width="52" height="43" viewBox="0 0 52 43" fill="none" xmlns="http://www.w3.org/2000/svg">
<path fill-rule="evenodd" clip-rule="evenodd" d="M1.86943 35.4539C1.7377 38.7174 4.76404 40.5622 7.13272 39.5687C7.39533 40.293 7.85521 40.9295 8.46042 41.4062C9.06563 41.883 9.79207 42.181 10.5577 42.2667C16.6534 42.6775 22.6176 42.0412 28.5774 41.4054C32.9071 40.9435 37.2346 40.4818 41.6086 40.422C42.4035 40.3969 43.1742 40.1424 43.8278 39.6893C44.4815 39.2362 44.9901 38.6037 45.2926 37.8681C45.3729 37.9555 45.4543 37.989 45.5667 38.0351C45.6365 38.0638 45.7182 38.0974 45.819 38.1519C48.3189 40.1383 51.8717 37.8681 51.8717 34.6046C51.8717 32.8723 51.8846 31.1471 51.8974 29.4257C51.9425 23.3923 51.9872 17.4068 51.4755 11.3353C51.4844 10.8139 51.3699 10.2979 51.1412 9.82932C50.9125 9.36075 50.5761 8.95294 50.1597 8.63923L49.7635 8.21333V8.0712C50.0339 7.59613 50.1708 7.05676 50.1597 6.51024C50.2678 5.88297 50.1758 5.23759 49.8967 4.66551C49.7815 3.74174 49.3528 2.88549 48.6822 2.23983C48.0116 1.59418 47.1397 1.19824 46.2122 1.11819C44.0695 1.05727 41.9029 1.07458 39.7327 1.09192C36.8389 1.11504 33.9387 1.13821 31.0805 0.976055C22.2959 0.473229 13.4839 1.18936 4.89577 3.10405C2.26412 3.81372 1.343 6.79301 2.39585 9.06314C2.11958 9.17385 1.88814 9.37357 1.73819 9.63067C-0.367027 12.3267 -0.104061 15.4496 0.422367 18.5696C0.445157 19.2387 0.533231 19.9039 0.685334 20.5559C0.802259 21.659 0.932157 22.762 1.06205 23.865C1.51699 27.7279 1.9719 31.5908 1.86943 35.4539ZM46.9884 4.89339C47.0109 5.04646 46.9966 5.20268 46.9469 5.34917C47.086 5.50088 47.1833 5.68611 47.2293 5.88673C47.2691 6.06031 47.2693 6.24026 47.2304 6.41332C47.1886 6.47364 47.0781 6.6875 47.0781 6.78038L46.8156 7.06712C46.8067 7.17508 46.7603 7.27653 46.6844 7.35385L46.5532 7.49697C46.4218 7.71202 46.2905 7.8912 46.1593 8.07029C46.0279 8.24962 45.8966 8.42886 45.7652 8.64392C44.9932 11.0735 42.5795 13.3472 40.5746 15.2359C39.8582 15.9107 39.194 16.5364 38.6756 17.1024C38.1407 17.6586 37.6108 18.2472 37.0753 18.842C34.8501 21.3134 32.5284 23.892 29.3539 24.7007C25.0488 25.8424 19.7041 21.4616 16.5475 18.8742L16.4878 18.8253C16.1111 18.5168 15.726 18.2037 15.3352 17.886C11.9128 15.1035 8.04951 11.9626 5.45957 8.35966C5.40909 8.30102 5.37136 8.23253 5.34877 8.15853C5.32618 8.08453 5.31922 8.00664 5.32833 7.9298C4.67166 7.49995 4.67166 6.20938 5.5908 6.06626C13.8447 4.13245 22.3358 3.40812 30.798 3.91597C33.7271 4.07971 36.6562 4.05613 39.5606 4.03273C41.7335 4.01523 43.8926 3.99785 46.0277 4.0591C46.1824 4.0599 46.3347 4.09747 46.4721 4.1687C46.6094 4.23993 46.7278 4.34279 46.8176 4.46879C46.9074 4.59479 46.9659 4.74032 46.9884 4.89339ZM47.2093 6.49364C47.2173 6.46707 47.2243 6.44028 47.2304 6.41332C47.253 6.3807 47.2554 6.39299 47.2093 6.49364ZM39.9796 32.1263C40.9133 33.0998 41.9537 34.1845 42.4829 35.4551C43.0083 36.1717 42.4829 37.4623 41.5642 37.4623C37.2519 37.5226 32.9396 37.9896 28.6274 38.4566C22.699 39.0986 16.7707 39.7407 10.8422 39.3258C10.5681 39.2839 10.3181 39.1451 10.1375 38.9347C9.95684 38.7243 9.85753 38.4562 9.85753 38.1789C9.85753 37.9016 9.95684 37.6335 10.1375 37.4231C10.3181 37.2127 10.5681 37.0739 10.8422 37.0319C11.2706 36.6874 11.6657 36.3034 12.0223 35.885C13.1575 34.2737 14.1945 32.6087 15.2289 30.948C16.5871 28.7674 17.9407 26.5941 19.5057 24.5596C19.7682 24.1297 20.7621 23.8455 21.1583 24.1322C24.1782 26.4256 27.1273 26.8956 29.8352 26.2874C29.9436 26.1697 30.2359 26.0024 30.561 25.8162C31.0279 25.5489 31.5624 25.2428 31.7171 24.9894C31.893 24.8303 32.1146 24.7308 32.3503 24.7051C32.5861 24.6794 32.8239 24.7288 33.0299 24.8463C35.3361 26.8384 37.4463 29.0467 39.3317 31.4408C39.5357 31.6635 39.7546 31.8917 39.9796 32.1263ZM48.5153 11.7876C48.7757 11.7876 49.0407 12.0744 49.1719 12.5042C49.498 17.3161 49.3198 21.7466 49.1379 26.2705C49.0272 29.023 48.9152 31.81 48.9144 34.7385C48.9144 35.5987 47.9958 36.3153 47.3391 35.7419C43.6989 33.1774 40.8992 29.5816 38.0941 25.9787C37.7627 25.5531 37.4312 25.1274 37.0983 24.7032C36.9061 24.4576 36.8017 24.1548 36.8017 23.843C36.8017 23.5312 36.9061 23.2284 37.0983 22.9828C38.083 21.7643 39.1317 20.7575 40.1803 19.7507C41.229 18.7439 42.2776 17.7371 43.2624 16.5186C43.4176 16.2814 43.5728 16.0281 43.7332 15.7664C44.2513 14.9211 44.8235 13.9875 45.6256 13.2213C45.9273 12.6196 46.2786 12.0442 46.676 11.5009C47.0722 10.7848 48.3845 10.9274 48.5153 11.7876ZM9.52936 15.958C10.6105 16.5256 11.6622 17.1476 12.6805 17.8215C12.8206 17.9066 12.9756 17.9956 13.1396 18.0899C14.3583 18.7907 16.0783 19.7798 15.9649 21.5471C15.5707 27.1402 10.3192 33.0181 6.64316 36.6021C6.47915 36.737 6.28026 36.8227 6.06955 36.8492C5.85884 36.8758 5.64491 36.8421 5.45255 36.7521C5.26019 36.6621 5.09727 36.5194 4.98264 36.3406C4.86802 36.1618 4.80638 35.9542 4.80488 35.7419C4.91653 31.229 4.36324 26.9237 3.79124 22.4728C3.69092 21.6921 3.59001 20.9069 3.49202 20.1154C3.43713 19.5202 3.34836 18.9064 3.25859 18.2857C2.9159 15.9162 2.55849 13.4449 4.01399 11.5138C4.19684 11.6138 4.316 11.7833 4.41584 11.9254C4.45931 11.9872 4.49912 12.0438 4.53894 12.0873C4.73987 12.1248 4.92368 12.2252 5.06388 12.374C5.19714 12.374 5.32794 12.5166 5.45874 12.6593L5.46006 12.6607C5.85426 12.6607 5.9855 12.9475 6.11674 13.2342C6.24803 13.3774 6.37921 13.4847 6.51032 13.592C6.6418 13.6997 6.77322 13.8072 6.90464 13.9508C7.39679 14.3996 7.94092 14.7921 8.50449 15.1986C8.84148 15.4417 9.18542 15.6898 9.52936 15.958Z" fill="white"/>
</svg>
