<svg width="53" height="43" viewBox="0 0 53 43" fill="none" xmlns="http://www.w3.org/2000/svg">
<path fill-rule="evenodd" clip-rule="evenodd" d="M2.38285 35.4536C2.25112 38.7172 5.27747 40.5619 7.64614 39.5685C7.90876 40.2928 8.36864 40.9292 8.97385 41.406C9.57906 41.8827 10.3055 42.1808 11.0711 42.2665C17.1669 42.6773 23.131 42.041 29.0908 41.4052C33.4205 40.9433 37.748 40.4816 42.122 40.4218C42.9169 40.3966 43.6876 40.1422 44.3413 39.689C44.9949 39.2359 45.5036 38.6035 45.806 37.8679C45.8863 37.9552 45.9678 37.9887 46.0801 38.0349C46.1499 38.0636 46.2316 38.0972 46.3324 38.1516C48.8323 40.138 52.3851 37.8679 52.3851 34.6043C52.3851 32.8721 52.398 31.1468 52.4109 29.4255C52.4559 23.3921 52.5006 17.4066 51.9889 11.335C51.9978 10.8137 51.8833 10.2976 51.6546 9.82908C51.4259 9.36051 51.0896 8.9527 50.6731 8.63898L50.2769 8.21308V8.07095C50.5473 7.59588 50.6842 7.05652 50.6731 6.50999C50.7812 5.88272 50.6892 5.23734 50.4101 4.66527C50.295 3.7415 49.8663 2.88524 49.1956 2.23959C48.525 1.59393 47.6531 1.198 46.7256 1.11794C44.5829 1.05703 42.4163 1.07434 40.2461 1.09168C37.3523 1.1148 34.4522 1.13797 31.5939 0.975811C22.8093 0.472985 13.9974 1.18912 5.4092 3.10381C2.77755 3.81347 1.85643 6.79277 2.90928 9.0629C2.63301 9.17361 2.40157 9.37333 2.25162 9.63043C0.146401 12.3265 0.409367 15.4494 0.935795 18.5693C0.958585 19.2384 1.04666 19.9037 1.19876 20.5557C1.31569 21.6587 1.44558 22.7617 1.57548 23.8647C2.03041 27.7277 2.48533 31.5905 2.38285 35.4536ZM47.5018 4.89315C47.5243 5.04622 47.5101 5.20244 47.4603 5.34892C47.5994 5.50063 47.6967 5.68587 47.7427 5.88649C47.7825 6.06007 47.7827 6.24002 47.7438 6.41308C47.7021 6.4734 47.5915 6.68725 47.5915 6.78013L47.3291 7.06687C47.3201 7.17484 47.2737 7.27628 47.1978 7.35361L47.0666 7.49673C46.9352 7.71177 46.8039 7.89095 46.6727 8.07005C46.5413 8.24937 46.41 8.42861 46.2787 8.64368C45.5066 11.0733 43.0929 13.347 41.088 15.2356C40.3716 15.9105 39.7075 16.5361 39.189 17.1022C38.6541 17.6584 38.1242 18.247 37.5887 18.8417C35.3635 21.3132 33.0419 23.8918 29.8673 24.7005C25.5623 25.8422 20.2176 21.4614 17.0609 18.874L17.0012 18.8251C16.6245 18.5165 16.2394 18.2035 15.8486 17.8857C12.4262 15.1033 8.56294 11.9623 5.97299 8.35942C5.92252 8.30078 5.88479 8.23228 5.8622 8.15828C5.8396 8.08428 5.83264 8.00639 5.84176 7.92956C5.18509 7.4997 5.18509 6.20914 6.10423 6.06601C14.3581 4.13221 22.8492 3.40788 31.3114 3.91573C34.2406 4.07947 37.1696 4.05588 40.074 4.03249C42.2469 4.01499 44.4061 3.9976 46.5412 4.05885C46.6959 4.05966 46.8482 4.09722 46.9855 4.16845C47.1228 4.23969 47.2413 4.34254 47.331 4.46854C47.4208 4.59454 47.4793 4.74008 47.5018 4.89315ZM47.7228 6.4934C47.7307 6.46682 47.7377 6.44003 47.7438 6.41308C47.7664 6.38045 47.7688 6.39274 47.7228 6.4934ZM40.4931 32.1261C41.4268 33.0996 42.4672 34.1843 42.9963 35.4549C43.5217 36.1715 42.9963 37.462 42.0777 37.462C37.7653 37.5223 33.4531 37.9893 29.1408 38.4563C23.2125 39.0984 17.2841 39.7404 11.3556 39.3256C11.0815 39.2836 10.8315 39.1449 10.6509 38.9345C10.4703 38.7241 10.371 38.4559 10.371 38.1786C10.371 37.9013 10.4703 37.6332 10.6509 37.4228C10.8315 37.2124 11.0815 37.0737 11.3556 37.0317C11.784 36.6871 12.1791 36.3031 12.5358 35.8847C13.6709 34.2734 14.7079 32.6085 15.7423 30.9478C17.1005 28.7671 18.4541 26.5939 20.0192 24.5593C20.2816 24.1295 21.2756 23.8452 21.6717 24.132C24.6917 26.4254 27.6407 26.8953 30.3487 26.2872C30.457 26.1695 30.7493 26.0021 31.0745 25.8159C31.5413 25.5486 32.0758 25.2426 32.2305 24.9892C32.4064 24.8301 32.628 24.7306 32.8638 24.7049C33.0995 24.6792 33.3374 24.7286 33.5434 24.8461C35.8495 26.8382 37.9597 29.0464 39.8452 31.4405C40.0492 31.6633 40.268 31.8915 40.4931 32.1261ZM49.0287 11.7874C49.2892 11.7874 49.5541 12.0741 49.6854 12.504C50.0114 17.3158 49.8333 21.7463 49.6513 26.2703C49.5407 29.0227 49.4286 31.8098 49.4278 34.7383C49.4278 35.5985 48.5092 36.3151 47.8525 35.7416C44.2123 33.1772 41.4126 29.5813 38.6075 25.9785C38.2761 25.5529 37.9446 25.1271 37.6117 24.703C37.4196 24.4574 37.3152 24.1546 37.3152 23.8428C37.3152 23.5309 37.4196 23.2281 37.6117 22.9825C38.5964 21.764 39.6451 20.7572 40.6937 19.7504C41.7424 18.7436 42.791 17.7368 43.7758 16.5183C43.931 16.2811 44.0862 16.0279 44.2466 15.7662C44.7647 14.9208 45.337 13.9872 46.139 13.2211C46.4407 12.6194 46.792 12.0439 47.1894 11.5007C47.5856 10.7846 48.8979 10.9272 49.0287 11.7874ZM10.0428 15.9577C11.1239 16.5254 12.1756 17.1474 13.1939 17.8213C13.3341 17.9063 13.489 17.9954 13.653 18.0897C14.8717 18.7905 16.5918 19.7795 16.4783 21.5469C16.0841 27.14 10.8327 33.0179 7.15659 36.6018C6.99257 36.7367 6.79369 36.8224 6.58298 36.849C6.37227 36.8755 6.15834 36.8419 5.96598 36.7518C5.77362 36.6618 5.6107 36.5192 5.49607 36.3404C5.38144 36.1616 5.31981 35.954 5.3183 35.7416C5.42996 31.2288 4.87667 26.9234 4.30467 22.4725C4.20434 21.6919 4.10344 20.9067 4.00545 20.1152C3.95055 19.5199 3.86179 18.9062 3.77202 18.2854C3.42932 15.9159 3.07192 13.4447 4.52742 11.5135C4.71027 11.6136 4.82943 11.7831 4.92927 11.9251C4.97274 11.987 5.01255 12.0436 5.05236 12.087C5.25329 12.1246 5.4371 12.225 5.57731 12.3737C5.71057 12.3737 5.84137 12.5164 5.97216 12.659L5.97349 12.6605C6.36769 12.6605 6.49893 12.9472 6.63016 13.234C6.76146 13.3771 6.89263 13.4845 7.02375 13.5918C7.15523 13.6994 7.28665 13.807 7.41807 13.9506C7.91022 14.3993 8.45435 14.7918 9.01792 15.1984C9.35491 15.4415 9.69885 15.6896 10.0428 15.9577Z" fill="#3E4959"/>
</svg>
