<svg width="58" height="44" viewBox="0 0 58 44" fill="none" xmlns="http://www.w3.org/2000/svg">
<path d="M48.0619 0.419922H9.69754C4.42244 0.419922 0.106445 4.73591 0.106445 10.011V33.9887C0.106445 39.2638 4.42244 43.5798 9.69754 43.5798H48.0619C53.337 43.5798 57.653 39.2638 57.653 33.9887V10.011C57.653 4.73591 53.337 0.419922 48.0619 0.419922ZM51.8983 14.327L32.9559 27.0352C31.757 27.7545 30.3184 28.2341 28.8797 28.2341C27.4411 28.2341 26.0024 27.7545 24.8035 27.0352L5.8611 14.327C4.90199 13.6077 4.66221 12.169 5.38155 10.9701C6.10088 10.011 7.53954 9.77124 8.73843 10.4906L27.6808 23.1988C28.4002 23.6783 29.5991 23.6783 30.3184 23.1988L49.2608 10.4906C50.4597 9.77124 51.8983 10.011 52.6177 11.2099C53.0972 12.169 52.8575 13.6077 51.8983 14.327Z" fill="#3F4A5A"/>
</svg>
