<svg width="176" height="63" viewBox="0 0 176 63" fill="none" xmlns="http://www.w3.org/2000/svg">
<g clip-path="url(#clip0_129_128)">
<path d="M172.9 52.3916C170.999 53.2923 169.799 53.6926 168.949 53.6926C166.498 53.6926 167.448 50.6402 169.099 45.5361C169.499 44.3852 169.899 43.0341 170.349 41.583C172.049 36.0786 170.349 31.9754 164.547 31.9754C159.596 31.9754 153.894 35.328 153.894 35.328L163.597 5.25415H148.143V7.85622C149.493 8.05637 151.694 9.60761 150.893 12.1596C150.843 12.3598 138.64 50.0397 138.64 50.0397C138.64 50.0397 123.586 57.5957 120.835 54.4432C118.834 52.0913 123.686 41.9833 123.886 41.5329C126.536 36.0286 129.787 38.3804 130.137 39.3812C130.538 40.4321 130.037 42.4837 129.537 43.5345C129.537 43.5345 134.289 43.6346 136.339 43.6346C139.64 36.4289 133.238 31.6251 126.336 31.6251C121.185 31.6251 116.584 34.2271 114.133 38.5806C112.332 41.7831 110.432 49.6394 110.282 51.9912V52.2414C110.282 52.2414 105.881 54.7935 104.83 53.4424C103.98 52.3415 104.93 49.2891 107.131 41.9833C107.131 41.9833 110.482 32.0254 101.029 32.0254C96.3778 32.0254 91.1763 35.328 91.1763 35.328L92.2266 31.9754H81.7737L75.5219 51.5409C75.5219 51.5409 71.4207 53.8427 69.9703 53.8427C68.4198 53.8427 68.2698 52.3916 69.3201 48.9388C70.2704 45.8864 73.2212 36.6791 74.7216 31.9754H64.1686C63.9186 32.776 62.9183 36.0786 62.9183 36.0786C62.9183 36.0786 59.6173 31.9754 55.116 31.9754C54.3158 31.9754 46.2635 32.2756 43.1626 41.9333L41.062 48.7387C40.2618 51.2907 40.0617 55.1437 41.3121 57.946C43.0126 61.699 47.3638 61.749 47.5139 61.749C51.9151 61.749 57.2666 58.6966 57.2666 58.6966C57.2666 58.6966 58.617 61.749 62.4181 61.749C66.4693 61.749 73.6213 57.5457 73.6213 57.5457L72.671 60.448H83.174C84.4744 56.2947 88.2755 44.3852 88.2755 44.3852C89.5259 40.2319 91.2264 38.1302 93.477 38.1302C93.9771 38.1302 98.3284 37.88 95.7777 46.0866L93.427 53.9428C91.6265 61.5488 97.9283 61.699 98.5284 61.699C102.029 61.699 111.032 56.8951 111.032 56.8951C111.032 56.8951 112.883 61.699 121.235 61.699C129.337 61.699 136.639 56.0945 136.639 56.0945L135.239 60.3979H145.742C150.443 45.7863 150.943 44.2851 150.993 44.135C154.444 35.0278 158.496 38.7307 158.996 39.5314C160.146 41.3828 159.146 44.5353 158.646 46.0365L156.845 51.7911C156.845 51.7911 152.944 61.5989 161.396 61.5989C165.598 61.5989 174.1 56.8451 174.45 56.695C174.45 56.6449 173.2 53.1922 172.9 52.3916ZM60.9677 42.6338C59.6173 46.9372 57.9168 52.0413 57.8668 52.1914C57.3167 54.0429 54.866 55.8943 53.0654 55.8943C50.7148 55.8943 49.9145 53.1422 52.0652 47.2875C52.2652 46.7371 52.8154 44.7355 52.9154 44.3352C56.1663 34.8276 61.918 39.6314 60.9677 42.6338Z" fill="#FBF5E3"/>
<path d="M41.4619 20.5663C44.1127 10.7585 34.3099 0 23.5568 0C13.654 0 4.10124 8.00635 0.450195 15.8125L7.30215 28.0723C12.7037 6.20492 22.5065 7.0556 24.0069 7.25576C27.908 7.70612 32.0092 13.3106 31.309 19.1652C31.209 19.9158 30.2587 26.3209 23.0567 28.7728L22.3064 29.023L25.2573 17.7641L14.8543 17.3137C14.1541 19.5155 9.85288 32.5258 6.4019 42.6338C1.1504 57.946 11.6534 62.95 18.3553 62.95C32.5094 62.95 41.1118 49.8396 38.7611 40.5322C37.0106 33.6267 29.3084 32.2256 29.3084 32.2256C29.3084 32.2256 39.1112 29.4234 41.4619 20.5663ZM24.9072 51.9913C23.9069 52.7919 20.5059 55.0437 18.0052 55.0437C17.0049 55.0437 16.2547 54.6934 15.7546 53.9929C14.7043 52.4917 14.9543 49.4893 16.6048 44.8356C16.7048 44.5854 16.9049 43.9849 17.105 43.2844C17.8552 41.0826 19.0555 37.4297 19.7057 35.7784L19.8557 35.4281L20.2058 35.5282C22.4065 36.0286 28.7583 38.7808 29.0084 44.5353C29.1584 47.1374 27.658 49.8396 24.9072 51.9913Z" fill="#FBF5E3"/>
<path d="M169.099 15.5624C165.548 15.5624 162.697 18.4647 162.747 21.9675C162.747 25.17 165.197 27.8721 168.398 28.2725C168.648 28.3225 168.898 28.3225 169.149 28.3225H169.199C170.899 28.3225 172.5 27.6219 173.7 26.421C174.9 25.22 175.55 23.6188 175.55 21.9174C175.45 18.4146 172.6 15.5624 169.099 15.5624ZM169.099 17.1636C169.299 17.1636 169.449 17.1636 169.649 17.2137C172.049 17.5139 173.85 19.5155 173.85 21.9174C173.85 23.1684 173.35 24.3694 172.45 25.3201C171.549 26.2208 170.349 26.7212 169.099 26.7212H169.049C166.448 26.7212 164.297 24.6196 164.297 21.9675C164.297 19.3154 166.448 17.1636 169.099 17.1636Z" fill="#FBF5E3"/>
<path d="M166.448 20.7665H165.447L165.747 19.9158H168.848L168.548 20.7665H167.598L166.548 23.919H165.447L166.448 20.7665Z" fill="#FBF5E3"/>
<path d="M169.298 19.9158H170.749L170.549 21.1168L170.349 22.2677L170.899 21.1168L171.499 19.9158H172.949L171.649 23.919H170.699L171.399 21.9174L171.699 21.0167L171.249 21.9174L170.249 23.919H169.398L169.699 21.9174L169.849 21.0167L169.548 21.9174L168.898 23.919H167.998L169.298 19.9158Z" fill="#FBF5E3"/>
</g>
<defs>
<clipPath id="clip0_129_128">
<rect width="175" height="63" fill="white" transform="translate(0.450195)"/>
</clipPath>
</defs>
</svg>
