<svg width="45" height="44" viewBox="0 0 45 44" fill="none" xmlns="http://www.w3.org/2000/svg">
<path d="M33.0521 1.50073H12.6617C9.95772 1.50073 7.36448 2.56488 5.45247 4.45909C3.54046 6.35329 2.46631 8.92238 2.46631 11.6012V31.8016C2.46631 34.4804 3.54046 37.0495 5.45247 38.9437C7.36448 40.8379 9.95772 41.9021 12.6617 41.9021H33.0521C35.756 41.9021 38.3493 40.8379 40.2613 38.9437C42.1733 37.0495 43.2475 34.4804 43.2475 31.8016V11.6012C43.2475 8.92238 42.1733 6.35329 40.2613 4.45909C38.3493 2.56488 35.756 1.50073 33.0521 1.50073ZM10.1668 35.5055C10.0182 35.5094 9.87098 35.4754 9.73937 35.4069C9.60775 35.3383 9.49611 35.2374 9.41512 35.1138C9.33413 34.9903 9.28652 34.8482 9.27682 34.7012C9.26713 34.5542 9.29569 34.4072 9.35977 34.2742L21.8338 7.81553C21.9055 7.66367 22.0196 7.53534 22.1627 7.44572C22.3057 7.35609 22.4716 7.30893 22.6409 7.30979H31.5512C31.7013 7.30971 31.8489 7.34718 31.9805 7.41872C32.112 7.49026 32.2232 7.59355 32.3037 7.71902C32.3842 7.84448 32.4314 7.98805 32.4409 8.13642C32.4505 8.28478 32.422 8.43313 32.3583 8.5677L19.8837 35.0126C19.811 35.1628 19.6963 35.2892 19.5531 35.3766C19.4099 35.464 19.2444 35.5087 19.0762 35.5055H10.1668ZM36.8812 22.7058L31.0537 35.0632C30.983 35.2175 30.8698 35.349 30.727 35.4425C30.5842 35.5359 30.4177 35.5876 30.2467 35.5914H19.5542C19.7248 35.5888 19.8912 35.5384 20.0341 35.4461C20.177 35.3537 20.2906 35.2232 20.3617 35.0696L26.7754 21.4488H36.0737C36.2228 21.4473 36.3699 21.4834 36.5011 21.5536C36.6324 21.6238 36.7435 21.7258 36.8241 21.8501C36.9048 21.9768 36.9524 22.1213 36.9623 22.2708C36.9723 22.4202 36.9444 22.5697 36.8812 22.7058Z" stroke="#3E4959" stroke-width="3"/>
</svg>
