<svg width="85" height="85" viewBox="0 0 85 85" fill="none" xmlns="http://www.w3.org/2000/svg">
<g clip-path="url(#clip0_253_2)">
<path d="M34.2317 34.2224V34.1703L34.2295 34.1183C34.2134 33.7325 34.5693 33.2977 35.0785 33.2977C35.6804 33.2977 36.0811 33.7715 36.0811 34.2224V49.7892C36.0811 50.3174 35.6809 50.7139 35.1564 50.7139C34.6282 50.7139 34.2317 50.3138 34.2317 49.7892V34.2224ZM48.0083 34.2224V34.1703L48.0062 34.1183C47.9901 33.7325 48.346 33.2977 48.8552 33.2977C49.457 33.2977 49.8577 33.7714 49.8577 34.2224V49.7892C49.8577 50.3174 49.4576 50.7139 48.933 50.7139C48.4049 50.7139 48.0083 50.3138 48.0083 49.7892V34.2224ZM42.0058 8.37207C23.4237 8.37207 8.37207 23.4237 8.37207 42.0058C8.37207 60.5879 23.4237 75.6395 42.0058 75.6395C60.5879 75.6395 75.6395 60.5879 75.6395 42.0058C75.6395 23.4237 60.5879 8.37207 42.0058 8.37207Z" fill="white" stroke="white" stroke-width="5"/>
<path d="M42.5 0C19.0188 0 0 19.0188 0 42.5C0 65.9813 19.0188 85 42.5 85C65.9813 85 85 65.9813 85 42.5C85 19.0188 65.9813 0 42.5 0ZM37.825 53.125C37.825 55.7813 35.7 57.8 33.15 57.8C30.4938 57.8 28.475 55.675 28.475 53.125V31.875C28.3688 29.325 30.4937 27.2 33.0437 27.2C35.7 27.2 37.825 29.325 37.825 31.875V53.125ZM56.6312 53.125C56.6312 55.7813 54.5062 57.8 51.9562 57.8C49.3 57.8 47.2812 55.675 47.2812 53.125V31.875C47.175 29.325 49.3 27.2 51.85 27.2C54.5063 27.2 56.6312 29.325 56.6312 31.875V53.125Z" fill="#3E4959"/>
</g>
<defs>
<clipPath id="clip0_253_2">
<rect width="85" height="85" fill="white"/>
</clipPath>
</defs>
</svg>
