<svg width="1809" height="463" viewBox="0 0 1809 463" fill="none" xmlns="http://www.w3.org/2000/svg">
<g clip-path="url(#clip0_317_10)">
<path d="M1781.69 539.263C1762.1 548.534 1749.73 552.655 1740.97 552.655C1715.72 552.655 1725.51 521.236 1742.52 468.701C1746.64 456.854 1750.76 442.948 1755.4 428.011C1772.92 371.355 1755.4 329.121 1695.62 329.121C1644.59 329.121 1585.84 363.629 1585.84 363.629L1685.82 54.0811H1526.57V80.8639C1540.49 82.9242 1563.16 98.8909 1554.92 125.159C1554.4 127.219 1428.65 515.056 1428.65 515.056C1428.65 515.056 1273.52 592.829 1245.17 560.381C1224.56 536.173 1274.55 432.132 1276.61 427.496C1303.93 370.84 1337.43 395.048 1341.04 405.349C1345.16 416.165 1340 437.282 1334.85 448.099C1334.85 448.099 1383.81 449.129 1404.94 449.129C1438.96 374.961 1372.99 325.515 1301.87 325.515C1248.78 325.515 1201.37 352.298 1176.11 397.108C1157.56 430.072 1137.98 510.935 1136.43 535.143V537.718C1136.43 537.718 1091.08 563.986 1080.25 550.079C1071.49 538.748 1081.28 507.33 1103.96 432.132C1103.96 432.132 1138.49 329.636 1041.08 329.636C993.154 329.636 939.554 363.629 939.554 363.629L950.377 329.121H842.663L778.24 530.507C778.24 530.507 735.979 554.2 721.033 554.2C705.056 554.2 703.51 539.263 714.333 503.725C724.125 472.306 754.533 377.536 769.994 329.121H661.249C658.672 337.362 648.364 371.355 648.364 371.355C648.364 371.355 614.349 329.121 567.965 329.121C559.719 329.121 476.743 332.211 444.789 431.617L423.143 501.664C414.897 527.932 412.835 567.591 425.72 596.434C443.243 635.064 488.081 635.579 489.627 635.579C534.981 635.579 590.126 604.16 590.126 604.16C590.126 604.16 604.042 635.579 643.21 635.579C684.956 635.579 758.656 592.314 758.656 592.314L748.863 622.187H857.093C870.493 579.438 909.662 456.854 909.662 456.854C922.546 414.105 940.069 392.472 963.262 392.472C968.415 392.472 1013.25 389.897 986.969 474.366L962.746 555.23C944.192 633.518 1009.13 635.064 1015.31 635.064C1051.39 635.064 1144.16 585.618 1144.16 585.618C1144.16 585.618 1163.23 635.064 1249.3 635.064C1332.79 635.064 1408.03 577.377 1408.03 577.377L1393.6 621.672H1501.83C1550.28 471.276 1555.43 455.824 1555.95 454.279C1591.51 360.539 1633.26 398.653 1638.41 406.894C1650.26 425.951 1639.96 458.4 1634.8 473.851L1616.25 533.083C1616.25 533.083 1576.05 634.034 1663.15 634.034C1706.44 634.034 1794.05 585.103 1797.66 583.558C1797.66 583.043 1784.78 547.504 1781.69 539.263ZM628.264 438.827C614.349 483.122 596.826 535.658 596.311 537.203C590.642 556.26 565.388 575.317 546.834 575.317C522.611 575.317 514.365 546.989 536.527 486.728C538.588 481.062 544.257 460.46 545.288 456.339C578.788 358.479 638.057 407.924 628.264 438.827Z" fill="white"/>
<path d="M427.217 213.994C454.83 111.944 352.714 0 240.7 0C137.543 0 38.0327 83.3068 0 164.531L71.3765 292.095C127.644 64.5628 229.759 73.4141 245.389 75.4968C286.027 80.1828 328.749 138.498 321.455 199.416C320.413 207.226 310.514 273.871 235.49 299.384L227.675 301.987L258.414 184.837L150.047 180.151C142.753 203.06 97.9473 338.434 61.9985 443.609C7.29394 602.933 116.703 655 186.517 655C333.959 655 423.57 518.585 399.083 421.741C380.848 349.889 300.615 335.31 300.615 335.31C300.615 335.31 402.73 306.153 427.217 213.994ZM254.767 540.974C244.347 549.304 208.919 572.734 182.87 572.734C172.45 572.734 164.635 569.09 159.425 561.8C148.484 546.18 151.089 514.94 168.282 466.518C169.324 463.915 171.408 457.667 173.492 450.378C181.307 427.468 193.811 389.459 200.584 372.277L202.147 368.633L205.793 369.674C228.717 374.881 294.884 403.517 297.489 463.394C299.052 490.469 283.422 518.585 254.767 540.974Z" fill="white"/>
<path d="M1742.52 160.183C1705.92 160.183 1676.55 190.056 1677.06 226.11C1677.06 259.073 1702.32 286.886 1735.3 291.007C1737.88 291.522 1740.45 291.522 1743.03 291.522H1743.55C1761.07 291.522 1777.56 284.311 1789.93 271.95C1802.3 259.588 1809 243.107 1809 225.595C1807.97 189.541 1778.59 160.183 1742.52 160.183ZM1742.52 176.664C1744.58 176.664 1746.12 176.664 1748.18 177.179C1772.92 180.27 1791.48 200.872 1791.48 225.595C1791.48 238.471 1786.32 250.832 1777.05 260.618C1767.77 269.889 1755.4 275.04 1742.52 275.04H1742C1715.2 275.04 1693.04 253.408 1693.04 226.11C1693.04 198.812 1715.2 176.664 1742.52 176.664Z" fill="white"/>
<path d="M1715.2 213.748H1704.89L1707.99 204.992H1739.94L1736.85 213.748H1727.05L1716.23 246.197H1704.89L1715.2 213.748Z" fill="white"/>
<path d="M1744.58 204.992H1759.52L1757.46 217.354L1755.4 229.2L1761.07 217.354L1767.25 204.992H1782.2L1768.8 246.197H1759.01L1766.22 225.594L1769.32 216.323L1764.68 225.594L1754.37 246.197H1745.61L1748.7 225.594L1750.25 216.323L1747.15 225.594L1740.45 246.197H1731.18L1744.58 204.992Z" fill="white"/>
<line x1="57.9946" y1="461.844" x2="1744.84" y2="461.844" stroke="white" stroke-width="3"/>
</g>
<defs>
<clipPath id="clip0_317_10">
<rect width="1809" height="463" fill="white"/>
</clipPath>
</defs>
</svg>
