<svg width="1810" height="554" viewBox="0 0 1810 554" fill="none" xmlns="http://www.w3.org/2000/svg">
<path d="M1781.95 540.772C1762.36 550.056 1749.99 554.182 1741.23 554.182C1715.97 554.182 1725.77 522.719 1742.78 470.109C1746.9 458.246 1751.02 444.32 1755.66 429.362C1773.19 372.626 1755.66 330.332 1695.87 330.332C1644.84 330.332 1586.09 364.889 1586.09 364.889L1686.08 54.9023H1526.81V81.7232C1540.73 83.7863 1563.41 99.7756 1555.16 126.081C1554.64 128.144 1428.88 516.53 1428.88 516.53C1428.88 516.53 1273.74 594.413 1245.39 561.919C1224.77 537.677 1274.77 433.489 1276.83 428.846C1304.15 372.11 1337.65 396.352 1341.26 406.668C1345.38 417.499 1340.23 438.646 1335.07 449.478C1335.07 449.478 1384.04 450.509 1405.17 450.509C1439.19 376.236 1373.21 326.721 1302.08 326.721C1249 326.721 1201.58 353.542 1176.32 398.415C1157.77 431.425 1138.18 512.404 1136.63 536.646V539.224C1136.63 539.224 1091.27 565.53 1080.45 551.603C1071.69 540.256 1081.48 508.793 1104.16 433.489C1104.16 433.489 1138.69 330.847 1041.28 330.847C993.344 330.847 939.739 364.889 939.739 364.889L950.563 330.332H842.839L778.41 532.003C778.41 532.003 736.145 555.73 721.198 555.73C705.219 555.73 703.673 540.772 714.497 505.183C724.29 473.72 754.7 378.815 770.163 330.332H661.408C658.831 338.584 648.522 372.626 648.522 372.626C648.522 372.626 614.504 330.332 568.116 330.332C559.869 330.332 476.885 333.426 444.928 432.973L423.28 503.12C415.034 529.425 412.972 569.14 425.858 598.024C443.382 636.708 488.224 637.224 489.771 637.224C535.128 637.224 590.279 605.761 590.279 605.761C590.279 605.761 604.196 637.224 643.368 637.224C685.118 637.224 758.824 593.898 758.824 593.898L749.031 623.813H857.271C870.672 581.003 909.844 458.246 909.844 458.246C922.73 415.436 940.255 393.773 963.449 393.773C968.603 393.773 1013.45 391.194 987.158 475.783L962.933 556.761C944.378 635.161 1009.32 636.708 1015.51 636.708C1051.59 636.708 1144.36 587.192 1144.36 587.192C1144.36 587.192 1163.43 636.708 1249.51 636.708C1333.01 636.708 1408.26 578.94 1408.26 578.94L1393.83 623.297H1502.07C1550.52 472.688 1555.68 457.215 1556.19 455.667C1591.76 361.794 1633.5 399.963 1638.66 408.215C1650.51 427.299 1640.21 459.794 1635.05 475.267L1616.5 534.582C1616.5 534.582 1576.29 635.676 1663.4 635.676C1706.7 635.676 1794.32 586.677 1797.93 585.129C1797.93 584.614 1785.04 549.024 1781.95 540.772ZM628.421 440.194C614.504 484.551 596.98 537.161 596.464 538.709C590.794 557.793 565.538 576.877 546.983 576.877C522.758 576.877 514.511 548.509 536.674 488.162C538.736 482.488 544.406 461.857 545.437 457.73C578.94 359.731 638.214 409.247 628.421 440.194Z" fill="white"/>
<path d="M427.354 215.043C454.97 112.847 352.845 0.745117 240.821 0.745117C137.654 0.745117 38.1344 84.1699 0.0981445 165.509L71.4812 293.253C127.754 65.3993 229.879 74.2632 245.51 76.3489C286.151 81.0415 328.877 139.439 321.582 200.443C320.54 208.264 310.641 275.004 235.61 300.553L227.795 303.16L258.536 185.844L150.159 181.151C142.864 204.093 98.0545 339.658 62.1024 444.982C7.39276 604.532 116.812 656.673 186.632 656.673C334.088 656.673 423.707 520.065 399.218 423.083C380.982 351.129 300.741 336.53 300.741 336.53C300.741 336.53 402.865 307.331 427.354 215.043ZM254.889 542.485C244.468 550.828 209.037 574.291 182.985 574.291C172.564 574.291 164.748 570.641 159.538 563.341C148.596 547.699 151.201 516.415 168.395 467.924C169.438 465.317 171.522 459.06 173.606 451.761C181.422 428.819 193.927 390.756 200.7 373.55L202.263 369.9L205.911 370.943C228.837 376.157 295.009 404.834 297.614 464.796C299.178 491.909 283.546 520.065 254.889 542.485Z" fill="white"/>
<path d="M1742.78 161.154C1706.18 161.154 1676.8 191.07 1677.32 227.175C1677.32 260.185 1702.57 288.037 1735.56 292.164C1738.14 292.679 1740.71 292.679 1743.29 292.679H1743.81C1761.33 292.679 1777.82 285.458 1790.19 273.08C1802.57 260.701 1809.27 244.196 1809.27 226.659C1808.23 190.554 1778.86 161.154 1742.78 161.154ZM1742.78 177.659C1744.84 177.659 1746.38 177.659 1748.45 178.175C1773.19 181.27 1791.74 201.901 1791.74 226.659C1791.74 239.554 1786.59 251.932 1777.31 261.732C1768.03 271.016 1755.66 276.174 1742.78 276.174H1742.26C1715.46 276.174 1693.29 254.511 1693.29 227.175C1693.29 199.838 1715.46 177.659 1742.78 177.659Z" fill="white"/>
<path d="M1715.46 214.796H1705.15L1708.24 206.027H1740.2L1737.11 214.796H1727.31L1716.49 247.29H1705.15L1715.46 214.796Z" fill="white"/>
<path d="M1744.84 206.027H1759.78L1757.72 218.406L1755.66 230.269L1761.33 218.406L1767.52 206.027H1782.46L1769.06 247.29H1759.27L1766.49 226.659L1769.58 217.375L1764.94 226.659L1754.63 247.29H1745.87L1748.96 226.659L1750.51 217.375L1747.41 226.659L1740.71 247.29H1731.44L1744.84 206.027Z" fill="white"/>
</svg>
