<svg width="24" height="30" viewBox="0 0 24 30" fill="none" xmlns="http://www.w3.org/2000/svg">
<path d="M19.7741 0.820312H3.90616C2.17697 0.820312 0.75293 2.24435 0.75293 3.97355V28.996C0.75293 29.1994 0.956364 29.3011 1.1598 29.3011L11.7384 24.7239C11.8401 24.7239 11.9418 24.7239 11.9418 24.7239L22.6221 29.3011C22.8256 29.4029 23.029 29.1994 23.029 28.996V3.97355C22.9273 2.24435 21.5032 0.820312 19.7741 0.820312ZM19.3672 24.5204L11.9418 21.2655C11.8401 21.2655 11.7384 21.2655 11.7384 21.2655L4.31303 24.5204C4.1096 24.6222 3.90616 24.4187 3.90616 24.2153V4.2787C3.90616 4.07526 4.00788 3.97355 4.21132 3.97355H19.5706C19.7741 3.97355 19.8758 4.07526 19.8758 4.2787V24.2153C19.7741 24.4187 19.5706 24.6222 19.3672 24.5204Z" fill="black"/>
</svg>
