<svg width="42" height="42" viewBox="0 0 42 42" fill="none" xmlns="http://www.w3.org/2000/svg">
<g clip-path="url(#clip0_484_1766)">
<path fill-rule="evenodd" clip-rule="evenodd" d="M1.09961 2.9219C1.09961 2.4373 1.29211 1.97255 1.63478 1.62989C1.97744 1.28723 2.44219 1.09473 2.92678 1.09473L15.717 1.09473C16.2016 1.09473 16.6663 1.28723 17.009 1.62989C17.3517 1.97255 17.5442 2.4373 17.5442 2.9219V13.8839H24.8523V2.9219C24.8523 2.68195 24.8996 2.44435 24.9914 2.22267C25.0832 2.00099 25.2178 1.79956 25.3875 1.62989C25.5572 1.46022 25.7586 1.32564 25.9803 1.23381C26.202 1.14199 26.4396 1.09473 26.6795 1.09473H39.4697C39.9543 1.09473 40.4191 1.28723 40.7617 1.62989C41.1044 1.97255 41.2969 2.4373 41.2969 2.9219V15.7121C41.2969 16.1967 41.1044 16.6614 40.7617 17.0041C40.4191 17.3468 39.9543 17.5393 39.4697 17.5393H28.5077V24.8474H39.4697C39.7097 24.8474 39.9473 24.8947 40.1689 24.9865C40.3906 25.0784 40.592 25.2129 40.7617 25.3826C40.9314 25.5523 41.066 25.7537 41.1578 25.9754C41.2496 26.1971 41.2969 26.4347 41.2969 26.6746V39.4648C41.2969 39.9494 41.1044 40.4142 40.7617 40.7568C40.4191 41.0995 39.9543 41.292 39.4697 41.292H26.6795C26.4396 41.292 26.202 41.2447 25.9803 41.1529C25.7586 41.0611 25.5572 40.9265 25.3875 40.7568C25.2178 40.5872 25.0832 40.3857 24.9914 40.1641C24.8996 39.9424 24.8523 39.7048 24.8523 39.4648V28.5028H17.5442V39.4648C17.5442 39.9494 17.3517 40.4142 17.009 40.7568C16.6663 41.0995 16.2016 41.292 15.717 41.292H2.92678C2.68683 41.292 2.44924 41.2447 2.22755 41.1529C2.00587 41.0611 1.80444 40.9265 1.63478 40.7568C1.29211 40.4142 1.09961 39.9494 1.09961 39.4648V26.6746C1.09961 26.4347 1.14687 26.1971 1.23869 25.9754C1.33052 25.7537 1.46511 25.5523 1.63478 25.3826C1.80444 25.2129 2.00587 25.0784 2.22755 24.9865C2.44924 24.8947 2.68683 24.8474 2.92678 24.8474H13.8888V17.5393H2.92678C2.68683 17.5393 2.44924 17.492 2.22755 17.4002C2.00587 17.3084 1.80444 17.1738 1.63478 17.0041C1.29211 16.6614 1.09961 16.1967 1.09961 15.7121L1.09961 2.9219Z" stroke="white" stroke-width="2.06182"/>
</g>
<defs>
<clipPath id="clip0_484_1766">
<rect width="41.2363" height="41.2363" fill="white" transform="translate(0.580566 0.575195)"/>
</clipPath>
</defs>
</svg>
