<svg width="41" height="41" viewBox="0 0 41 41" fill="none" xmlns="http://www.w3.org/2000/svg">
<g clip-path="url(#clip0_390_530)">
<path fill-rule="evenodd" clip-rule="evenodd" d="M0.59375 2.28925C0.59375 1.81918 0.780483 1.36837 1.11287 1.03598C1.44526 0.703591 1.89607 0.516857 2.36614 0.516857H14.7729C15.2429 0.516857 15.6938 0.703591 16.0261 1.03598C16.3585 1.36837 16.5453 1.81918 16.5453 2.28925V12.9226H23.6343V2.28925C23.6343 2.05649 23.6802 1.82602 23.7692 1.61098C23.8583 1.39595 23.9889 1.20056 24.1535 1.03598C24.318 0.871397 24.5134 0.740843 24.7285 0.651772C24.9435 0.562701 25.174 0.516857 25.4067 0.516857H37.8135C38.2835 0.516857 38.7343 0.703591 39.0667 1.03598C39.3991 1.36837 39.5859 1.81918 39.5859 2.28925V14.696C39.5859 15.1661 39.3991 15.6169 39.0667 15.9493C38.7343 16.2816 38.2835 16.4684 37.8135 16.4684H27.1801V23.5574H37.8135C38.0462 23.5574 38.2767 23.6033 38.4917 23.6924C38.7068 23.7814 38.9021 23.912 39.0667 24.0766C39.2313 24.2411 39.3619 24.4365 39.4509 24.6516C39.54 24.8666 39.5859 25.0971 39.5859 25.3298V37.7366C39.5859 38.2066 39.3991 38.6574 39.0667 38.9898C38.7343 39.3222 38.2835 39.509 37.8135 39.509H25.4067C25.174 39.509 24.9435 39.4631 24.7285 39.374C24.5134 39.285 24.318 39.1544 24.1535 38.9898C23.9889 38.8253 23.8583 38.6299 23.7692 38.4148C23.6802 38.1998 23.6343 37.9693 23.6343 37.7366V27.1032H16.5453V37.7366C16.5453 38.2066 16.3585 38.6574 16.0261 38.9898C15.6938 39.3222 15.2429 39.509 14.7729 39.509H2.36614C2.13339 39.509 1.90291 39.4631 1.68788 39.374C1.47284 39.285 1.27745 39.1544 1.11287 38.9898C0.780483 38.6574 0.59375 38.2066 0.59375 37.7366V25.3298C0.59375 25.0971 0.639594 24.8666 0.728665 24.6516C0.817736 24.4365 0.94829 24.2411 1.11287 24.0766C1.27745 23.912 1.47284 23.7814 1.68788 23.6924C1.90291 23.6033 2.13339 23.5574 2.36614 23.5574H12.9995V16.4684H2.36614C2.13339 16.4684 1.90291 16.4225 1.68788 16.3335C1.47284 16.2444 1.27745 16.1138 1.11287 15.9493C0.780483 15.6169 0.59375 15.1661 0.59375 14.696V2.28925Z" stroke="#3E4959" stroke-width="2"/>
</g>
<defs>
<clipPath id="clip0_390_530">
<rect width="40" height="40" fill="white" transform="translate(0.0898438 0.0129089)"/>
</clipPath>
</defs>
</svg>
