<svg width="45" height="43" viewBox="0 0 45 43" fill="none" xmlns="http://www.w3.org/2000/svg">
<path fill-rule="evenodd" clip-rule="evenodd" d="M1.15661 15.0908H43.6842V17.2588C43.6946 18.3821 43.4811 19.4962 43.0561 20.5361C42.6308 21.5768 42.0022 22.5223 41.2071 23.3172C40.412 24.1121 39.4664 24.7405 38.4256 25.1656C37.385 25.5906 36.2702 25.8038 35.1463 25.7929C33.8245 25.784 32.5225 25.472 31.3402 24.8809C30.3742 24.3979 29.5093 23.7392 28.7886 22.9404C28.0708 23.7451 27.2054 24.4081 26.2371 24.8923C25.0521 25.4848 23.7455 25.7932 22.4206 25.7932C21.0958 25.7932 19.7892 25.4848 18.6042 24.8923C17.6358 24.4081 16.7705 23.7451 16.0527 22.9404C15.332 23.7392 14.467 24.3979 13.501 24.8809C12.3188 25.472 11.0167 25.784 9.69501 25.7929C8.57106 25.8039 7.45619 25.5907 6.41559 25.1657C5.3747 24.7407 4.42903 24.1123 3.63389 23.3174C2.83875 22.5225 2.21011 21.577 1.78476 20.5362C1.35976 19.4963 1.14622 18.3822 1.15661 17.2588V15.0908ZM2.31119 16.2454V17.2671C2.30189 18.2379 2.48624 19.2008 2.85352 20.0994C3.22081 20.9981 3.76361 21.8145 4.45018 22.5009C5.13676 23.1872 5.95331 23.7298 6.85208 24.0968C7.75086 24.4639 8.7138 24.648 9.68457 24.6384L9.68643 24.6384C10.8318 24.6307 11.9602 24.3604 12.9847 23.8482C14.0092 23.336 14.9026 22.5955 15.596 21.6838L16.0587 21.0754L16.5173 21.6869C17.2046 22.6034 18.0959 23.3473 19.1206 23.8596C20.1452 24.3719 21.275 24.6387 22.4206 24.6387C23.5662 24.6387 24.6961 24.3719 25.7207 23.8596C26.7454 23.3473 27.6366 22.6034 28.324 21.6869L28.7826 21.0754L29.2453 21.6838C29.9387 22.5955 30.832 23.336 31.8566 23.8482C32.8811 24.3604 34.0094 24.6307 35.1548 24.6384L35.1567 24.6384C36.1274 24.6479 37.0903 24.4638 37.989 24.0967C38.8877 23.7297 39.7043 23.1871 40.3908 22.5007C41.0773 21.8143 41.6201 20.998 41.9873 20.0993C42.3546 19.2007 42.539 18.2378 42.5297 17.2671L42.5296 17.2616V16.2454H2.31119Z" fill="#3E4959" stroke="#3E4959"/>
<path fill-rule="evenodd" clip-rule="evenodd" d="M8.11914 0.769145H36.7208C37.1532 0.740589 37.5831 0.855419 37.9438 1.09621C38.3041 1.33667 38.5747 1.68905 38.7143 2.09853L43.3404 13.0625H1.32812L6.12698 2.09462C6.26697 1.6868 6.53708 1.3359 6.89617 1.09621C7.2569 0.855418 7.68683 0.740589 8.11914 0.769145ZM8.0532 1.92195C7.87097 1.90762 7.68922 1.95502 7.53718 2.0565C7.38515 2.15799 7.27167 2.30767 7.21501 2.48146L7.2063 2.50817L3.09356 11.9079H41.6001L37.6325 2.50455L37.625 2.48146C37.5683 2.30767 37.4548 2.15799 37.3028 2.0565C37.1508 1.95502 36.969 1.90762 36.7868 1.92195L36.7642 1.92373H8.07579L8.0532 1.92195Z" fill="#3E4959" stroke="#3E4959"/>
<path fill-rule="evenodd" clip-rule="evenodd" d="M16.632 25.1664V41.7078H4.93445C4.64648 41.7232 4.35838 41.6784 4.0885 41.5764C3.81252 41.4721 3.56189 41.3103 3.35327 41.1016C3.14465 40.893 2.9828 40.6424 2.87848 40.3664C2.77646 40.0965 2.73175 39.8084 2.74708 39.5205V25.1981L3.66321 25.8622C5.41612 27.1329 7.5252 27.8184 9.69026 27.8211L9.69595 27.8211L9.70164 27.8212C11.8658 27.8665 13.9817 27.1788 15.7056 25.8698L16.632 25.1664ZM3.90167 27.3964V39.5552L3.90053 39.5732C3.89232 39.7042 3.91208 39.8354 3.95848 39.9582C4.00488 40.0809 4.07688 40.1924 4.16968 40.2852C4.26248 40.378 4.37397 40.45 4.49673 40.4964C4.6195 40.5428 4.75073 40.5626 4.88172 40.5544L4.89976 40.5532H15.4775V27.4195C13.7394 28.4735 11.7307 29.0174 9.68318 28.9756C7.6435 28.9721 5.64868 28.4238 3.90167 27.3964ZM11.9718 31.6668C11.7808 31.6321 11.5838 31.6618 11.4115 31.7512L11.2864 31.8162H11.2332C11.2195 31.8276 11.2027 31.8425 11.1822 31.8617C11.1504 31.8916 11.1171 31.9247 11.0761 31.9658L11.0651 31.9768L11.0535 31.9871C10.9599 32.0712 10.8856 32.1747 10.836 32.2903C10.7863 32.4059 10.7624 32.531 10.766 32.6568L10.7671 32.6955L10.763 32.7339C10.7535 32.8229 10.7759 32.9124 10.8261 32.9865L10.9255 33.1332V33.2226C10.937 33.2364 10.9519 33.2531 10.971 33.2736C11.0009 33.3055 11.0341 33.3387 11.0752 33.3798L11.0859 33.3905L11.096 33.4018C11.1801 33.4951 11.2834 33.5692 11.3989 33.6187C11.5111 33.6667 11.6321 33.6906 11.754 33.6887C11.7586 33.6877 11.7652 33.686 11.7739 33.6837C11.8103 33.6738 11.8541 33.6593 11.9175 33.6382L11.9241 33.636C11.9794 33.6176 12.052 33.5934 12.1222 33.5742C12.1698 33.5612 12.2418 33.543 12.3239 33.5342C12.3389 33.522 12.3578 33.5055 12.3817 33.4831C12.4138 33.4531 12.447 33.4199 12.4883 33.3787L12.4893 33.3778C12.4954 33.3718 12.5013 33.366 12.539 33.2906C12.5406 33.2875 12.5422 33.2843 12.5439 33.2809C12.5797 33.209 12.6417 33.0848 12.7548 32.9567C12.7922 32.8889 12.8082 32.811 12.7999 32.7335L12.7967 32.7031V32.6976C12.7957 32.6931 12.7942 32.6872 12.7921 32.6796C12.7822 32.6433 12.7678 32.5995 12.7467 32.5361L12.7445 32.5295C12.726 32.4742 12.7018 32.4016 12.6827 32.3314C12.6696 32.2837 12.6515 32.2115 12.6426 32.1293C12.6305 32.1144 12.6141 32.0957 12.5919 32.0719C12.562 32.0401 12.5288 32.0069 12.4878 31.9658L12.4768 31.9548L12.4664 31.9433C12.3367 31.7988 12.1628 31.7016 11.9718 31.6668ZM10.9779 30.6787C11.353 30.5089 11.7718 30.4569 12.1786 30.5309C12.6158 30.6105 13.0147 30.8314 13.3142 31.1594C13.3863 31.2314 13.4919 31.3369 13.5768 31.45C13.6583 31.5586 13.783 31.7531 13.7915 32.0078C13.7926 32.0124 13.7942 32.0188 13.7965 32.0273C13.8064 32.0636 13.8208 32.1074 13.842 32.171L13.844 32.1769C13.8625 32.2324 13.8868 32.3054 13.9061 32.3761C13.9222 32.4351 13.9458 32.5305 13.9505 32.6363C13.9821 32.9883 13.8911 33.3408 13.6925 33.6338L13.6617 33.6793L13.6229 33.7181L13.622 33.719C13.6155 33.7254 13.6096 33.7312 13.5716 33.8072C13.5701 33.8102 13.5685 33.8134 13.5669 33.8166C13.5258 33.899 13.4506 34.0497 13.3036 34.1963C13.2997 34.2002 13.2957 34.2042 13.2916 34.2083C13.22 34.2797 13.1157 34.3839 13.0038 34.468C12.8955 34.5493 12.7008 34.6746 12.4458 34.683C12.4412 34.6841 12.4348 34.6857 12.4263 34.688C12.3899 34.6979 12.3461 34.7124 12.2826 34.7335L12.2767 34.7355C12.2212 34.754 12.1482 34.7784 12.0774 34.7976C12.0136 34.815 11.907 34.8413 11.7909 34.8428C11.5002 34.85 11.2113 34.7944 10.944 34.6798C10.6798 34.5666 10.4429 34.3984 10.249 34.1864L10.2482 34.1856C10.1761 34.1136 10.071 34.0086 9.98613 33.8955C9.92446 33.8134 9.83805 33.682 9.79597 33.5127C9.6519 33.2506 9.58722 32.9514 9.61115 32.6518C9.60846 32.3712 9.66424 32.0929 9.77508 31.8348C9.88861 31.5704 10.0572 31.3333 10.2696 31.1394C10.3417 31.0673 10.4472 30.9617 10.5603 30.8768C10.648 30.8109 10.7917 30.7169 10.9779 30.6787Z" fill="#3E4959" stroke="#3E4959"/>
<path fill-rule="evenodd" clip-rule="evenodd" d="M42.0959 25.1981V39.5205C42.1112 39.8085 42.0665 40.0966 41.9645 40.3665C41.8602 40.6425 41.6983 40.8931 41.4897 41.1017C41.2811 41.3103 41.0305 41.4722 40.7545 41.5765C40.4846 41.6785 40.1965 41.7232 39.9085 41.7079H18.6611V27.1356L19.4122 27.3726C20.3832 27.6791 21.3964 27.8304 22.4146 27.8212C24.5797 27.7948 26.6855 27.1104 28.4522 25.8586L28.7978 25.6138L29.1351 25.8699C30.8596 27.1793 32.9764 27.867 35.1412 27.8213L35.147 27.8211L35.1527 27.8211C37.3178 27.8185 39.4269 27.133 41.1798 25.8623L42.0959 25.1981ZM28.775 27.0359C26.8903 28.2737 24.6882 28.9484 22.4278 28.9757L22.4261 28.9757C21.5463 28.9838 20.6697 28.8847 19.8157 28.6813V40.5533H39.9432L39.9613 40.5545C40.0923 40.5627 40.2235 40.5429 40.3463 40.4965C40.469 40.4501 40.5805 40.3781 40.6733 40.2853C40.7661 40.1925 40.8381 40.081 40.8845 39.9583C40.9309 39.8355 40.9507 39.7043 40.9425 39.5733L40.9413 39.5552V27.3965C39.1943 28.4238 37.1995 28.9722 35.1599 28.9757C32.8762 29.0228 30.6407 28.3413 28.775 27.0359Z" fill="#3E4959" stroke="#3E4959"/>
</svg>
