<svg width="204" height="198" viewBox="0 0 204 198" fill="none" xmlns="http://www.w3.org/2000/svg">
<g opacity="0.15">
<path fill-rule="evenodd" clip-rule="evenodd" d="M8.3824 84.5701L188.912 61.5046L190.087 70.7078C190.741 75.4705 190.439 80.3157 189.199 84.9605C187.958 89.6091 185.802 93.9635 182.858 97.7691C179.914 101.575 176.241 104.755 172.053 107.124C167.866 109.492 163.249 111.002 158.472 111.566C152.857 112.245 147.16 111.626 141.821 109.758C137.459 108.232 133.43 105.905 129.937 102.905C127.327 106.71 124.013 109.994 120.165 112.574C115.456 115.732 110.076 117.75 104.453 118.469C98.8287 119.187 93.1147 118.587 87.7632 116.714C83.3899 115.184 79.3569 112.839 75.8733 109.813C73.2474 113.594 69.9329 116.86 66.0942 119.434C61.3962 122.584 56.0381 124.615 50.4323 125.37C45.667 126.026 40.8188 125.725 36.171 124.486C31.5219 123.246 27.1667 121.091 23.3602 118.148C19.5537 115.205 16.3724 111.532 14.0023 107.345C11.6341 103.161 10.1234 98.5475 9.55826 93.7734L8.3824 84.5701ZM13.9098 88.8451L14.4639 93.1822C14.9509 97.3082 16.2558 101.296 18.3023 104.911C20.3488 108.527 23.0958 111.698 26.3825 114.239C29.6693 116.781 33.4298 118.641 37.4442 119.712C41.4585 120.782 45.646 121.041 49.7618 120.474L49.7696 120.473C54.6277 119.82 59.2711 118.06 63.3423 115.33C67.4136 112.6 70.8041 108.972 73.2531 104.726L74.8873 101.892L77.1658 104.239C80.5806 107.757 84.7675 110.431 89.395 112.05C94.0225 113.67 98.9634 114.189 103.826 113.568C108.689 112.946 113.341 111.201 117.413 108.471C121.484 105.74 124.864 102.099 127.285 97.8359L128.9 94.9913L131.194 97.323C134.632 100.817 138.826 103.476 143.453 105.095C148.08 106.713 153.016 107.249 157.883 106.66L157.891 106.659C162.016 106.173 166.004 104.869 169.62 102.823C173.236 100.778 176.408 98.0318 178.95 94.7458C181.492 91.4598 183.353 87.6999 184.425 83.686C185.496 79.6721 185.757 75.4848 185.191 71.3691L185.188 71.3456L184.637 67.032L13.9098 88.8451Z" fill="#3E4959" stroke="#3E4959" stroke-width="4.2795"/>
<path fill-rule="evenodd" clip-rule="evenodd" d="M30.171 19.9971L151.585 4.48448C153.405 4.12879 155.292 4.38306 156.954 5.20957C158.613 6.03494 159.954 7.38397 160.768 9.04651L186.352 53.0792L8.01074 75.8652L22.4332 26.7042C22.8063 24.8971 23.7626 23.261 25.1569 22.0488C26.5576 20.831 28.3204 20.1103 30.171 19.9971ZM30.5164 24.9265C29.735 24.9645 28.9892 25.2643 28.3989 25.7775C27.8085 26.2908 27.408 26.9877 27.2617 27.7562L27.2392 27.8743L14.8788 70.0066L178.339 49.1219L156.396 11.3568L156.352 11.2629C156.017 10.5558 155.454 9.98201 154.754 9.63366C154.053 9.28531 153.256 9.18271 152.49 9.34236L152.395 9.36215L30.6132 24.9218L30.5164 24.9265Z" fill="#3E4959" stroke="#3E4959" stroke-width="4.2795"/>
<path fill-rule="evenodd" clip-rule="evenodd" d="M79.5401 118.948L88.5116 189.166L38.8555 195.511C37.6414 195.732 36.3942 195.698 35.1932 195.412C33.9651 195.118 32.8134 194.567 31.8146 193.795C30.8159 193.022 29.9929 192.046 29.4004 190.931C28.821 189.841 28.4749 188.642 28.3838 187.412L20.6158 126.613L24.865 128.935C32.9953 133.379 42.3201 135.145 51.5122 133.982L51.5363 133.979L51.5605 133.976C60.7718 132.995 69.3807 128.928 75.9891 122.436L79.5401 118.948ZM26.7093 135.319L33.3038 186.933L33.3088 187.01C33.345 187.57 33.5 188.117 33.7636 188.613C34.0272 189.109 34.3932 189.543 34.8375 189.886C35.2818 190.23 35.7941 190.475 36.3404 190.606C36.8867 190.736 37.4545 190.749 38.0061 190.643L38.082 190.628L82.9842 184.891L75.8609 129.138C69.0546 134.556 60.8225 137.954 52.1083 138.887C43.448 139.978 34.6826 138.732 26.7093 135.319ZM63.2831 149.07C62.4536 149.026 61.6331 149.259 60.9504 149.732L60.4546 150.076L60.2289 150.104C60.1766 150.161 60.1134 150.233 60.0371 150.325C59.9179 150.469 59.795 150.628 59.6428 150.825L59.6022 150.877L59.5587 150.928C59.2068 151.335 58.9478 151.815 58.7998 152.333C58.6517 152.85 58.6181 153.394 58.7013 153.926L58.7269 154.09L58.7304 154.255C58.7386 154.638 58.882 155.006 59.1354 155.293L59.637 155.862L59.6855 156.241C59.7417 156.294 59.8139 156.357 59.9064 156.433C60.0505 156.552 60.2092 156.675 60.4059 156.827L60.4572 156.867L60.5064 156.91C60.9139 157.26 61.3927 157.519 61.9098 157.666C62.412 157.809 62.9386 157.845 63.4552 157.771C63.4742 157.764 63.5012 157.753 63.5369 157.739C63.6859 157.677 63.8641 157.592 64.1217 157.468L64.1487 157.455C64.3732 157.347 64.6683 157.204 64.956 157.085C65.1512 157.004 65.447 156.888 65.7907 156.806C65.8478 156.746 65.919 156.666 66.0083 156.558C66.1281 156.413 66.2512 156.254 66.4043 156.057L66.4078 156.052C66.4304 156.023 66.4524 155.996 66.5717 155.655C66.5766 155.641 66.5816 155.626 66.5869 155.611C66.7002 155.286 66.8958 154.726 67.3065 154.121C67.4287 153.813 67.4541 153.473 67.3771 153.149L67.3469 153.021L67.3439 152.998C67.337 152.98 67.3275 152.955 67.3146 152.924C67.2529 152.775 67.1679 152.597 67.0438 152.339L67.0309 152.313C66.9228 152.088 66.7805 151.793 66.661 151.505C66.5799 151.31 66.4636 151.014 66.3815 150.669C66.3222 150.613 66.2422 150.542 66.135 150.453C65.9908 150.334 65.8322 150.211 65.6355 150.059L65.583 150.018L65.5327 149.975C64.9039 149.432 64.1126 149.114 63.2831 149.07ZM58.5282 145.414C60.0285 144.49 61.778 144.042 63.5449 144.136C65.4441 144.237 67.2571 144.958 68.7062 146.188C69.0514 146.454 69.5569 146.845 69.9786 147.279C70.3836 147.696 71.0186 148.454 71.1926 149.53C71.1996 149.549 71.2098 149.576 71.2243 149.61C71.2861 149.759 71.3711 149.937 71.4955 150.195L71.5071 150.22C71.6157 150.445 71.7587 150.742 71.8789 151.032C71.979 151.273 72.1313 151.666 72.2084 152.112C72.5336 153.589 72.3386 155.135 71.6543 156.487L71.5482 156.696L71.4044 156.882L71.401 156.886C71.3771 156.917 71.3552 156.945 71.235 157.288C71.2302 157.302 71.2253 157.316 71.2202 157.331C71.0904 157.703 70.853 158.383 70.3084 159.085C70.294 159.104 70.2792 159.123 70.264 159.142C69.9989 159.485 69.6127 159.983 69.183 160.401C68.7675 160.805 68.0092 161.442 66.9309 161.617C66.9121 161.624 66.8857 161.634 66.8509 161.648C66.7019 161.71 66.5239 161.795 66.2657 161.919L66.2416 161.931C66.0162 162.04 65.7194 162.183 65.4295 162.303C65.168 162.411 64.7298 162.581 64.2378 162.65C63.0077 162.838 61.7512 162.759 60.5543 162.417C59.3715 162.08 58.2745 161.494 57.3363 160.7L57.3325 160.697C56.9873 160.43 56.4844 160.042 56.0627 159.608C55.7563 159.292 55.3183 158.782 55.0478 158.086C54.2941 157.051 53.8573 155.816 53.7964 154.532C53.6328 153.342 53.7186 152.13 54.0491 150.974C54.3876 149.79 54.9749 148.692 55.7713 147.754C56.0381 147.409 56.4286 146.903 56.8627 146.482C57.1994 146.154 57.7585 145.677 58.5282 145.414Z" fill="#3E4959" stroke="#3E4959" stroke-width="4.2795"/>
<path fill-rule="evenodd" clip-rule="evenodd" d="M187.651 105.27L195.419 166.069C195.64 167.283 195.607 168.53 195.32 169.731C195.027 170.959 194.476 172.111 193.703 173.11C192.931 174.108 191.955 174.931 190.84 175.524C189.749 176.103 188.551 176.449 187.32 176.54L97.125 188.064L89.2215 126.205L92.5382 126.804C96.8263 127.578 101.21 127.671 105.527 127.08C114.703 125.794 123.271 121.746 130.092 115.474L131.426 114.247L132.997 115.151C141.028 119.775 150.386 121.546 159.551 120.177L159.576 120.174L159.6 120.171C168.789 118.985 177.37 114.932 184.122 108.586L187.651 105.27ZM132.101 120.297C124.772 126.573 115.789 130.631 106.209 131.973L106.202 131.974C102.471 132.486 98.6967 132.541 94.961 132.14L101.4 182.537L186.841 171.62L186.918 171.615C187.479 171.579 188.025 171.424 188.521 171.161C189.017 170.897 189.451 170.531 189.795 170.087C190.138 169.642 190.384 169.13 190.514 168.584C190.644 168.038 190.657 167.47 190.551 166.918L190.537 166.842L183.942 115.229C177.083 120.537 168.913 123.947 160.256 125.068C150.588 126.506 140.728 124.826 132.101 120.297Z" fill="#3E4959" stroke="#3E4959" stroke-width="4.2795"/>
</g>
</svg>
