<svg width="45" height="44" viewBox="0 0 45 44" fill="none" xmlns="http://www.w3.org/2000/svg">
<path d="M32.6237 2.01205H12.4359C9.75879 2.01205 7.19131 3.06563 5.29829 4.94102C3.40528 6.8164 2.3418 9.35997 2.3418 12.0122V32.0119C2.3418 34.6641 3.40528 37.2077 5.29829 39.0831C7.19131 40.9585 9.75879 42.0121 12.4359 42.0121H32.6237C35.3008 42.0121 37.8683 40.9585 39.7613 39.0831C41.6543 37.2077 42.7178 34.6641 42.7178 32.0119V12.0122C42.7178 9.35997 41.6543 6.8164 39.7613 4.94102C37.8683 3.06563 35.3008 2.01205 32.6237 2.01205ZM9.9658 35.679C9.81862 35.6828 9.67291 35.6492 9.5426 35.5813C9.41229 35.5134 9.30176 35.4136 9.22158 35.2912C9.14139 35.1689 9.09425 35.0282 9.08465 34.8827C9.07506 34.7371 9.10334 34.5916 9.16678 34.46L21.5169 8.26412C21.5879 8.11377 21.7009 7.98671 21.8425 7.89798C21.9841 7.80925 22.1484 7.76255 22.3159 7.76341H31.1378C31.2863 7.76333 31.4325 7.80042 31.5627 7.87125C31.693 7.94208 31.8031 8.04434 31.8828 8.16856C31.9624 8.29278 32.0092 8.43493 32.0186 8.58182C32.0281 8.72871 31.9999 8.87558 31.9368 9.00881L19.5862 35.191C19.5142 35.3397 19.4006 35.4648 19.2588 35.5513C19.1171 35.6379 18.9532 35.6822 18.7867 35.679H9.9658ZM36.4148 23.0064L30.6452 35.2411C30.5752 35.3939 30.4631 35.5241 30.3217 35.6166C30.1804 35.7091 30.0156 35.7602 29.8462 35.7641H19.26C19.4289 35.7615 19.5936 35.7116 19.735 35.6202C19.8765 35.5287 19.989 35.3995 20.0595 35.2474L26.4093 21.7619H35.6153C35.763 21.7605 35.9086 21.7962 36.0385 21.8657C36.1684 21.9352 36.2785 22.0362 36.3583 22.1593C36.4382 22.2847 36.4853 22.4278 36.4951 22.5758C36.505 22.7237 36.4774 22.8717 36.4148 23.0064Z" stroke="#3E4959" stroke-width="3"/>
</svg>
