<svg width="190" height="189" viewBox="0 0 190 189" fill="none" xmlns="http://www.w3.org/2000/svg">
<g opacity="0.15" clip-path="url(#clip0_429_760)">
<path fill-rule="evenodd" clip-rule="evenodd" d="M3.90974 23.7291C3.7529 21.672 4.41967 19.6368 5.76338 18.0713C7.10709 16.5057 9.01767 15.5381 11.0748 15.3813L65.37 11.2416C67.4271 11.0848 69.4623 11.7516 71.0278 13.0953C72.5933 14.439 73.5609 16.3496 73.7178 18.4067L77.2657 64.941L108.289 62.5756L104.741 16.0413C104.664 15.0227 104.787 13.9988 105.105 13.0281C105.424 12.0573 105.93 11.1587 106.595 10.3835C107.26 9.60832 108.072 8.97179 108.983 8.51025C109.895 8.0487 110.888 7.77117 111.906 7.69351L166.202 3.55385C168.259 3.39701 170.294 4.06379 171.859 5.4075C173.425 6.75121 174.393 8.66179 174.549 10.7189L178.689 65.0141C178.846 67.0712 178.179 69.1064 176.835 70.6719C175.492 72.2374 173.581 73.2051 171.524 73.3619L124.99 76.9098L127.355 107.933L173.889 104.385C174.908 104.308 175.932 104.432 176.903 104.75C177.873 105.068 178.772 105.574 179.547 106.239C180.322 106.904 180.959 107.716 181.42 108.627C181.882 109.539 182.16 110.532 182.237 111.551L186.377 165.846C186.534 167.903 185.867 169.938 184.523 171.504C183.179 173.069 181.269 174.037 179.212 174.194L124.917 178.333C123.898 178.411 122.874 178.287 121.903 177.969C120.933 177.651 120.034 177.145 119.259 176.48C118.484 175.814 117.847 175.003 117.386 174.091C116.924 173.18 116.646 172.187 116.569 171.168L113.021 124.634L81.9973 126.999L85.5452 173.533C85.7021 175.591 85.0353 177.626 83.6916 179.191C82.3479 180.757 80.4373 181.724 78.3801 181.881L24.085 186.021C23.0664 186.099 22.0425 185.975 21.0717 185.657C20.1009 185.339 19.2023 184.833 18.4271 184.167C16.8616 182.824 15.894 180.913 15.7372 178.856L11.5975 124.561C11.5198 123.542 11.6436 122.518 11.9616 121.547C12.2797 120.577 12.7858 119.678 13.4511 118.903C14.1165 118.128 14.928 117.491 15.8393 117.03C16.7507 116.568 17.744 116.291 18.7626 116.213L65.2969 112.665L62.9315 81.6414L16.3972 85.1893C15.3786 85.267 14.3547 85.1433 13.3839 84.8252C12.4132 84.5072 11.5145 84.001 10.7394 83.3357C9.17385 81.992 8.20624 80.0814 8.0494 78.0243L3.90974 23.7291Z" stroke="#3E4959" stroke-width="8.77793"/>
</g>
<defs>
<clipPath id="clip0_429_760">
<rect width="175.559" height="175.559" fill="white" transform="translate(0.945312 13.9355) rotate(-4.36)"/>
</clipPath>
</defs>
</svg>
