<svg width="232" height="192" viewBox="0 0 232 192" fill="none" xmlns="http://www.w3.org/2000/svg">
<g opacity="0.15">
<path fill-rule="evenodd" clip-rule="evenodd" d="M19.299 162.044C19.7904 175.79 33.0891 182.568 42.7178 177.638C44.0524 180.596 46.1872 183.121 48.8812 184.929C51.5752 186.737 54.7211 187.757 57.9637 187.871C83.6924 187.645 108.533 183.064 133.357 178.487C151.39 175.161 169.414 171.838 187.763 170.187C191.093 169.827 194.248 168.511 196.847 166.399C199.447 164.287 201.381 161.469 202.415 158.283C202.78 158.624 203.133 158.739 203.619 158.897C203.922 158.995 204.276 159.11 204.717 159.306C215.85 166.847 230.042 156.177 228.998 142.473C228.443 135.199 227.945 127.95 227.448 120.717C225.706 95.3676 223.978 70.2188 219.886 44.8867C219.757 42.6947 219.111 40.5644 218 38.67C216.89 36.7756 215.347 35.1707 213.498 33.9867L211.698 32.325L211.652 31.7282C212.636 29.6467 213.038 27.338 212.816 25.0466C213.07 22.3779 212.477 19.6973 211.122 17.3843C210.342 13.5421 208.268 10.0837 205.245 7.58711C202.223 5.0905 198.435 3.70694 194.514 3.66763C185.497 4.09766 176.405 4.86382 167.297 5.63125C155.153 6.65454 142.982 7.68008 130.927 7.91399C93.8779 8.6142 57.1039 14.4418 21.6531 25.2308C10.8294 29.0532 7.91498 41.8587 13.0628 51.0545C11.938 51.6078 11.0301 52.5206 10.4827 53.6482C2.50537 65.6432 4.60917 78.6729 7.81836 91.6057C8.12822 94.4081 8.71099 97.1736 9.55839 99.8627C10.4024 104.457 11.3009 109.047 12.1994 113.638C15.3462 129.713 18.4929 145.789 19.299 162.044ZM198.98 19.2725C199.124 19.9081 199.114 20.5687 198.952 21.1997C199.584 21.7922 200.052 22.5389 200.31 23.3667C200.532 24.0828 200.591 24.8384 200.483 25.5776C200.327 25.8443 199.931 26.7777 199.961 27.1677L198.95 28.4558C198.947 28.912 198.785 29.3528 198.491 29.7018L197.986 30.3448C197.503 31.2899 197.009 32.0843 196.515 32.8784C196.021 33.6735 195.527 34.4682 195.044 35.4133C192.58 45.8629 183.172 56.1833 175.357 64.7558C172.565 67.8189 169.976 70.6587 167.98 73.2017C165.912 75.7085 163.876 78.3496 161.817 81.0186C153.264 92.109 144.34 103.68 131.269 108.092C113.556 114.264 89.7105 97.579 75.6268 87.7243L75.3607 87.5381C73.6799 86.3631 71.9627 85.1717 70.2199 83.9625C54.958 73.3737 37.7298 61.4207 25.7009 47.1203C25.4702 46.8902 25.2898 46.6146 25.1713 46.3111C25.0527 46.0076 24.9986 45.6827 25.0122 45.3572C22.1171 43.7623 21.7041 38.3429 25.5179 37.4477C59.5589 26.6854 94.983 20.9261 130.68 20.3502C143.033 20.1002 155.325 19.0637 167.514 18.0358C176.633 17.2669 185.694 16.5028 194.679 16.0766C195.329 16.0305 195.981 16.1395 196.58 16.3946C197.18 16.6498 197.71 17.0438 198.127 17.5442C198.544 18.0445 198.837 18.6369 198.98 19.2725ZM200.42 25.9216C200.445 25.8075 200.466 25.6927 200.483 25.5776C200.567 25.4334 200.581 25.4842 200.42 25.9216ZM178.265 135.873C182.498 139.662 187.214 143.884 189.842 149.05C192.278 151.891 190.485 157.479 186.627 157.773C168.538 159.406 150.579 162.747 132.621 166.089C107.932 170.682 83.243 175.276 58.2151 175.431C57.0507 175.343 55.9564 174.84 55.1306 174.014C54.3047 173.189 53.8019 172.094 53.7132 170.93C53.6244 169.766 53.9556 168.608 54.6468 167.667C55.3379 166.725 56.3433 166.063 57.4809 165.799C59.1695 164.215 60.7058 162.476 62.0694 160.605C66.3204 153.475 70.1422 146.152 73.9542 138.847C78.9597 129.255 83.9482 119.696 89.869 110.652C90.8336 108.762 94.9163 107.251 96.6717 108.328C110.087 116.992 122.621 118.021 133.798 114.601C134.215 114.072 135.389 113.276 136.695 112.39C138.57 111.118 140.716 109.662 141.285 108.548C141.972 107.824 142.871 107.335 143.853 107.152C144.835 106.968 145.849 107.1 146.752 107.527C157.073 115.154 166.641 123.752 175.325 133.202C176.253 134.072 177.245 134.96 178.265 135.873ZM207.598 47.7343C208.692 47.6509 209.897 48.7702 210.585 50.5332C213.495 70.6348 214.165 89.2965 214.849 108.352C215.265 119.945 215.686 131.685 216.62 143.982C216.896 147.595 213.268 150.898 210.326 148.7C194.22 139.096 181.312 124.893 168.38 110.661C166.852 108.98 165.324 107.298 163.79 105.624C162.904 104.654 162.369 103.416 162.269 102.107C162.17 100.797 162.511 99.4921 163.239 98.3994C166.984 92.9674 171.066 88.404 175.147 83.8406C179.228 79.2771 183.309 74.7137 187.055 69.2817C187.631 68.236 188.201 67.1229 188.791 65.9726C190.696 62.2571 192.8 58.1534 195.923 54.6795C196.997 52.0563 198.288 49.5273 199.783 47.1189C201.218 43.985 206.774 44.1639 207.598 47.7343ZM45.2228 77.7246C49.9444 79.7623 54.5599 82.0375 59.0516 84.5414C59.6674 84.8537 60.3464 85.1782 61.0653 85.5217C66.4071 88.0743 73.9467 91.677 74.0358 99.1348C74.1707 122.748 54.0002 149.111 39.7106 165.338C39.065 165.957 38.2573 166.38 37.381 166.559C36.5047 166.738 35.5956 166.665 34.759 166.349C33.9224 166.032 33.1926 165.485 32.654 164.771C32.1155 164.057 31.7902 163.205 31.7159 162.314C30.7403 143.327 27.039 125.426 23.2124 106.918C22.5412 103.672 21.8662 100.407 21.2014 97.115C20.7804 94.633 20.2112 92.0841 19.6355 89.5063C17.4381 79.6659 15.1463 69.4028 20.6402 60.8277C21.44 61.1894 21.9946 61.863 22.4593 62.4274C22.6617 62.6732 22.847 62.8983 23.0281 63.0679C23.8838 63.1614 24.6878 63.5242 25.3242 64.1039C25.8838 64.0613 26.4787 64.6184 27.0736 65.1756L27.0796 65.1812C28.735 65.055 29.3778 66.2171 30.0207 67.3792C30.6179 67.9383 31.2031 68.3472 31.788 68.7559C32.3745 69.1657 32.9608 69.5753 33.5587 70.1361C35.7689 71.863 38.1795 73.3371 40.6762 74.8639C42.169 75.7769 43.6927 76.7086 45.2228 77.7246Z" fill="#3E4959"/>
</g>
</svg>
