<svg width="52" height="43" viewBox="0 0 52 43" fill="none" xmlns="http://www.w3.org/2000/svg">
<path fill-rule="evenodd" clip-rule="evenodd" d="M1.91069 35.0693C1.77896 38.3329 4.8053 40.1776 7.17398 39.1842C7.43659 39.9085 7.89647 40.5449 8.50168 41.0217C9.10689 41.4984 9.83333 41.7965 10.599 41.8822C16.6947 42.293 22.6588 41.6567 28.6187 41.0209C32.9484 40.5589 37.2758 40.0973 41.6498 40.0375C42.4448 40.0123 43.2155 39.7579 43.8691 39.3047C44.5227 38.8516 45.0314 38.2192 45.3338 37.4836C45.4142 37.5709 45.4956 37.6044 45.6079 37.6506C45.6777 37.6793 45.7595 37.7129 45.8603 37.7673C48.3602 39.7537 51.913 37.4836 51.913 34.22C51.913 32.4878 51.9258 30.7625 51.9387 29.0412C51.9837 23.0078 52.0284 17.0223 51.5168 10.9507C51.5257 10.4294 51.4111 9.91334 51.1824 9.44477C50.9537 8.9762 50.6174 8.56839 50.2009 8.25467L49.8048 7.82878V7.68665C50.0752 7.21158 50.2121 6.67221 50.2009 6.12569C50.309 5.49842 50.217 4.85304 49.938 4.28096C49.8228 3.35719 49.3941 2.50094 48.7235 1.85528C48.0528 1.20963 47.1809 0.813688 46.2535 0.733634C44.1108 0.672723 41.9441 0.690032 39.7739 0.707371C36.8801 0.730489 33.98 0.753659 31.1218 0.591503C22.3371 0.0886773 13.5252 0.804812 4.93703 2.7195C2.30538 3.42916 1.38426 6.40846 2.43711 8.67859C2.16084 8.7893 1.9294 8.98902 1.77945 9.24612C-0.325767 11.9421 -0.0628012 15.0651 0.463627 18.185C0.486417 18.8541 0.57449 19.5194 0.726594 20.1714C0.843519 21.2744 0.973417 22.3774 1.10331 23.4804C1.55825 27.3434 2.01316 31.2062 1.91069 35.0693ZM47.0297 4.50884C47.0521 4.66191 47.0379 4.81813 46.9881 4.96462C47.1272 5.11632 47.2245 5.30156 47.2706 5.50218C47.3104 5.67576 47.3106 5.85571 47.2716 6.02877C47.2299 6.08909 47.1194 6.30294 47.1194 6.39583L46.8569 6.68256C46.848 6.79053 46.8015 6.89197 46.7257 6.9693L46.5944 7.11242C46.463 7.32746 46.3317 7.50664 46.2005 7.68574C46.0691 7.86507 45.9378 8.04431 45.8065 8.25937C45.0345 10.689 42.6208 12.9627 40.6158 14.8513C39.8995 15.5262 39.2353 16.1518 38.7168 16.7179C38.1819 17.2741 37.652 17.8627 37.1165 18.4574C34.8913 20.9289 32.5697 23.5075 29.3951 24.3162C25.0901 25.4579 19.7454 21.0771 16.5887 18.4897L16.5291 18.4408C16.1523 18.1322 15.7673 17.8192 15.3765 17.5014C11.9541 14.719 8.09077 11.578 5.50083 7.97511C5.45035 7.91647 5.41262 7.84798 5.39003 7.77398C5.36744 7.69998 5.36048 7.62209 5.36959 7.54525C4.71292 7.11539 4.71292 5.82483 5.63206 5.68171C13.886 3.7479 22.377 3.02357 30.8392 3.53142C33.7684 3.69516 36.6974 3.67157 39.6018 3.64818C41.7748 3.63068 43.9339 3.61329 46.069 3.67454C46.2237 3.67535 46.376 3.71291 46.5133 3.78415C46.6507 3.85538 46.7691 3.95823 46.8589 4.08424C46.9486 4.21024 47.0072 4.35577 47.0297 4.50884ZM47.2506 6.10909C47.2586 6.08252 47.2656 6.05573 47.2716 6.02877C47.2942 5.99614 47.2967 6.00844 47.2506 6.10909ZM40.0209 31.7418C40.9546 32.7153 41.995 33.8 42.5241 35.0706C43.0496 35.7872 42.5241 37.0777 41.6055 37.0777C37.2931 37.138 32.9809 37.605 28.6686 38.072C22.7403 38.7141 16.812 39.3561 10.8835 38.9413C10.6094 38.8993 10.3594 38.7605 10.1787 38.5501C9.9981 38.3398 9.89879 38.0716 9.89879 37.7943C9.89879 37.517 9.9981 37.2489 10.1787 37.0385C10.3594 36.8281 10.6094 36.6894 10.8835 36.6474C11.3119 36.3028 11.707 35.9188 12.0636 35.5004C13.1987 33.8891 14.2358 32.2242 15.2701 30.5635C16.6283 28.3828 17.9819 26.2096 19.547 24.175C19.8095 23.7452 20.8034 23.4609 21.1996 23.7477C24.2195 26.0411 27.1686 26.511 29.8765 25.9029C29.9848 25.7852 30.2772 25.6178 30.6023 25.4316C31.0691 25.1643 31.6036 24.8583 31.7584 24.6049C31.9342 24.4458 32.1558 24.3463 32.3916 24.3206C32.6273 24.2949 32.8652 24.3443 33.0712 24.4618C35.3773 26.4539 37.4875 28.6621 39.373 31.0562C39.577 31.279 39.7958 31.5072 40.0209 31.7418ZM48.5565 11.4031C48.817 11.4031 49.082 11.6898 49.2132 12.1197C49.5393 16.9315 49.3611 21.362 49.1792 25.886C49.0685 28.6384 48.9564 31.4254 48.9557 34.354C48.9557 35.2142 48.037 35.9308 47.3803 35.3573C43.7401 32.7929 40.9404 29.197 38.1353 25.5942C37.8039 25.1685 37.4725 24.7428 37.1395 24.3187C36.9474 24.0731 36.843 23.7702 36.843 23.4584C36.843 23.1466 36.9474 22.8438 37.1395 22.5982C38.1243 21.3797 39.1729 20.3729 40.2216 19.3661C41.2702 18.3593 42.3189 17.3525 43.3036 16.134C43.4589 15.8968 43.6141 15.6436 43.7745 15.3819C44.2926 14.5365 44.8648 13.6029 45.6669 12.8368C45.9685 12.2351 46.3199 11.6596 46.7172 11.1163C47.1134 10.4002 48.4258 10.5429 48.5565 11.4031ZM9.57062 15.5734C10.6517 16.1411 11.7035 16.763 12.7218 17.437C12.8619 17.522 13.0168 17.6111 13.1808 17.7054C14.3995 18.4061 16.1196 19.3952 16.0061 21.1626C15.6119 26.7557 10.3605 32.6335 6.68442 36.2175C6.5204 36.3524 6.32152 36.4381 6.11081 36.4647C5.9001 36.4912 5.68617 36.4576 5.49381 36.3675C5.30145 36.2775 5.13853 36.1349 5.0239 35.9561C4.90928 35.7773 4.84764 35.5697 4.84614 35.3573C4.95779 30.8444 4.4045 26.5391 3.8325 22.0882C3.73218 21.3075 3.63127 20.5224 3.53328 19.7309C3.47839 19.1356 3.38962 18.5219 3.29985 17.9011C2.95716 15.5316 2.59975 13.0604 4.05525 11.1292C4.2381 11.2293 4.35726 11.3988 4.4571 11.5408C4.50057 11.6026 4.54038 11.6593 4.5802 11.7027C4.78113 11.7403 4.96494 11.8407 5.10514 11.9894C5.2384 11.9894 5.3692 12.1321 5.5 12.2747L5.50132 12.2762C5.89552 12.2762 6.02676 12.5629 6.158 12.8496C6.28929 12.9928 6.42047 13.1002 6.55158 13.2075C6.68306 13.3151 6.81448 13.4227 6.9459 13.5662C7.43805 14.015 7.98218 14.4075 8.54575 14.8141C8.88274 15.0572 9.22668 15.3053 9.57062 15.5734Z" fill="#3E4959"/>
</svg>
